<svg fill="#fb8c00" xmlns="http://www.w3.org/2000/svg" viewBox="0 0 32 32" width="64px" height="64px"><path d="M 15.46875 2.960938 C 14.949219 2.980469 14.425781 3.023438 13.902344 3.101563 C 8.601563 4 4.300781 8.199219 3.199219 13.5 C 2.898438 14.898438 2.898438 16.300781 3.101563 17.800781 C 3.300781 18.902344 4 19.800781 5.101563 20.199219 C 6.199219 20.597656 7.398438 20.300781 8.199219 19.5 C 9.398438 18.300781 11.300781 18.300781 12.5 19.5 C 13.699219 20.699219 13.699219 22.601563 12.5 23.800781 C 11.699219 24.601563 11.402344 25.800781 11.800781 26.902344 C 12.199219 28 13.097656 28.800781 14.199219 28.902344 C 14.898438 29 15.601563 29 16.300781 29 C 16.601563 29 16.902344 29 17.300781 28.902344 L 18 28.902344 L 18 26.902344 L 17.199219 26.902344 C 16.300781 26.902344 15.300781 26.902344 14.402344 26.800781 C 14 26.800781 13.699219 26.597656 13.597656 26.199219 C 13.5 25.800781 13.601563 25.398438 13.902344 25.097656 C 15.902344 23.097656 15.902344 20 13.902344 18 C 11.902344 16 8.800781 16 6.800781 18 C 6.5 18.300781 6.097656 18.402344 5.699219 18.300781 C 5.398438 18.199219 5.101563 17.898438 5.101563 17.5 C 4.898438 16.300781 4.898438 15.101563 5.199219 13.902344 C 6.199219 9.398438 9.800781 5.800781 14.300781 5.101563 C 17.800781 4.5 21.300781 5.699219 23.800781 8.199219 C 26.300781 10.699219 27.402344 14.199219 26.902344 17.699219 L 28.902344 18 C 29.5 13.898438 28.199219 9.800781 25.199219 6.800781 C 22.574219 4.175781 19.109375 2.851563 15.46875 2.960938 Z M 14 7 C 12.894531 7 12 7.894531 12 9 C 12 10.105469 12.894531 11 14 11 C 15.105469 11 16 10.105469 16 9 C 16 7.894531 15.105469 7 14 7 Z M 20 8 C 18.894531 8 18 8.894531 18 10 C 18 11.105469 18.894531 12 20 12 C 21.105469 12 22 11.105469 22 10 C 22 8.894531 21.105469 8 20 8 Z M 9 11 C 7.894531 11 7 11.894531 7 13 C 7 14.105469 7.894531 15 9 15 C 10.105469 15 11 14.105469 11 13 C 11 11.894531 10.105469 11 9 11 Z M 23 13 C 21.894531 13 21 13.894531 21 15 C 21 16.105469 21.894531 17 23 17 C 24.105469 17 25 16.105469 25 15 C 25 13.894531 24.105469 13 23 13 Z M 24 20 L 24 21 L 23.5 21 C 22.101563 21 21 22.101563 21 23.5 C 21 24.898438 22.101563 26 23.5 26 L 26.5 26 C 26.699219 26 27 26.300781 27 26.5 C 27 26.699219 26.699219 27 26.5 27 L 21 27 L 21 29 L 24 29 L 24 30 L 26 30 L 26 29 L 26.5 29 C 27.898438 29 29 27.898438 29 26.5 C 29 25.101563 27.898438 24 26.5 24 L 23.5 24 C 23.300781 24 23 23.699219 23 23.5 C 23 23.300781 23.300781 23 23.5 23 L 28 23 L 28 21 L 26 21 L 26 20 Z"/></svg>