<svg fill="#fb8c00" xmlns="http://www.w3.org/2000/svg" viewBox="0 0 32 32" width="64px" height="64px"><path d="M 16 3 C 8.832031 3 3 8.832031 3 16 C 3 23.167969 8.832031 29 16 29 C 23.167969 29 29 23.167969 29 16 C 29 13.5 28.289063 11.171875 27.0625 9.1875 L 25.59375 10.65625 C 26.484375 12.242188 27 14.054688 27 16 C 27 22.066406 22.066406 27 16 27 C 9.933594 27 5 22.066406 5 16 C 5 9.933594 9.933594 5 16 5 C 17.945313 5 19.757813 5.515625 21.34375 6.40625 L 22.8125 4.9375 C 20.828125 3.710938 18.5 3 16 3 Z M 27.28125 3.28125 L 15.28125 15.28125 C 15.101563 15.460938 15 15.722656 15 16 C 15 16.550781 15.449219 17 16 17 C 16.277344 17 16.539063 16.898438 16.71875 16.71875 L 28.71875 4.71875 Z M 16 7 C 11.039063 7 7 11.039063 7 16 C 7 20.960938 11.039063 25 16 25 C 20.960938 25 25 20.960938 25 16 C 25 14.613281 24.6875 13.300781 24.125 12.125 L 22.59375 13.65625 C 22.855469 14.390625 23 15.175781 23 16 C 23 19.859375 19.859375 23 16 23 C 12.140625 23 9 19.859375 9 16 C 9 12.140625 12.140625 9 16 9 C 16.824219 9 17.609375 9.144531 18.34375 9.40625 L 19.875 7.875 C 18.699219 7.3125 17.386719 7 16 7 Z M 16 11 C 13.242188 11 11 13.242188 11 16 C 11 18.757813 13.242188 21 16 21 C 18.757813 21 21 18.757813 21 16 C 21 15.765625 20.96875 15.539063 20.9375 15.3125 L 18.125 18.125 C 17.859375 18.390625 17.550781 18.601563 17.21875 18.75 C 17.203125 18.757813 17.171875 18.742188 17.15625 18.75 C 17.007813 18.8125 16.875 18.867188 16.71875 18.90625 C 16.683594 18.914063 16.628906 18.929688 16.59375 18.9375 C 16.398438 18.976563 16.203125 19 16 19 C 15.585938 19 15.203125 18.902344 14.84375 18.75 C 13.769531 18.292969 13 17.242188 13 16 C 13 15.796875 13.023438 15.601563 13.0625 15.40625 C 13.070313 15.371094 13.085938 15.316406 13.09375 15.28125 C 13.132813 15.125 13.1875 14.992188 13.25 14.84375 C 13.257813 14.828125 13.242188 14.796875 13.25 14.78125 C 13.398438 14.445313 13.609375 14.140625 13.875 13.875 L 16.6875 11.0625 C 16.460938 11.03125 16.234375 11 16 11 Z"/></svg>