<?xml version="1.0"?><svg fill="#1565c0" xmlns="http://www.w3.org/2000/svg" viewBox="0 0 128 128" width="64px" height="64px">    <path d="M 64 1 C 56.8 1 51 6.8 51 14 C 51 21.2 56.8 27 64 27 C 71.2 27 77 21.2 77 14 C 77 6.8 71.2 1 64 1 z M 29 7 C 21.8 7 16 12.8 16 20 C 16 27.2 21.8 33 29 33 C 36.2 33 42 27.2 42 20 C 42 12.8 36.2 7 29 7 z M 64 7 C 67.9 7 71 10.1 71 14 C 71 17.9 67.9 21 64 21 C 60.1 21 57 17.9 57 14 C 57 10.1 60.1 7 64 7 z M 99 7 C 91.8 7 86 12.8 86 20 C 86 27.2 91.8 33 99 33 C 106.2 33 112 27.2 112 20 C 112 12.8 106.2 7 99 7 z M 29 13 C 32.9 13 36 16.1 36 20 C 36 23.9 32.9 27 29 27 C 25.1 27 22 23.9 22 20 C 22 16.1 25.1 13 29 13 z M 99 13 C 102.9 13 106 16.1 106 20 C 106 23.9 102.9 27 99 27 C 95.1 27 92 23.9 92 20 C 92 16.1 95.1 13 99 13 z M 54.800781 31 C 48.300781 31 42.700391 35.900391 41.900391 42.400391 L 38 73.599609 C 37.8 75.199609 38.999609 76.700391 40.599609 76.900391 C 42.199609 77.100391 43.700391 75.900781 43.900391 74.300781 L 47.800781 43.099609 C 48.200781 39.599609 51.199219 37 54.699219 37 L 72 37 C 78.1 37 79 45.1 79 50 L 79 68 C 79 69.7 77.7 71 76 71 C 74.3 71 73 72.3 73 74 L 73 80 L 73 80.800781 L 73 121 L 67 121 L 67 80 C 67 78.3 65.7 77 64 77 C 62.3 77 61 78.3 61 80 L 61 121 L 55 121 L 55 74 C 55 72.3 53.7 71 52 71 C 50.3 71 49 72.3 49 74 L 49 121 L 33 121 C 31.3 121 30 122.3 30 124 C 30 125.7 31.3 127 33 127 L 95 127 C 96.7 127 98 125.7 98 124 C 98 122.3 96.7 121 95 121 L 79 121 L 79 80.800781 L 79 80 L 79 76.5 C 82.5 75.3 85 71.9 85 68 L 85 50 C 85 45.5 84.1 31 72 31 L 54.800781 31 z M 19.599609 37 C 13.199609 37 7.8007812 41.6 6.8007812 48 L 3 71.5 C 2.7 73.1 3.9 74.700391 5.5 74.900391 L 6 74.900391 C 7.5 74.900391 8.7 73.800391 9 72.400391 L 12.699219 48.900391 C 13.199219 45.500391 16.099609 43 19.599609 43 L 37 43 C 38.7 43 40 41.7 40 40 C 40 38.3 38.7 37 37 37 L 19.599609 37 z M 91 37 C 89.3 37 88 38.3 88 40 C 88 41.7 89.3 43 91 43 L 107 43 C 110.9 43 114 46.1 114 50 L 114 74 C 114 75.7 112.7 77 111 77 C 109.3 77 108 78.3 108 80 L 108 123.69922 C 108 125.39922 109.3 126.69922 111 126.69922 C 112.7 126.69922 114 125.39922 114 123.69922 L 114 82.5 C 117.5 81.3 120 77.9 120 74 L 120 50 C 120 42.8 114.2 37 107 37 L 91 37 z M 17 76.699219 C 15.3 76.699219 14 77.999219 14 79.699219 L 14 124 C 14 125.7 15.3 127 17 127 C 18.7 127 20 125.7 20 124 L 20 79.699219 C 20 78.099219 18.7 76.699219 17 76.699219 z M 6 81 C 4.3 81 3 82.3 3 84 L 3 98 C 3 99.7 4.3 101 6 101 C 7.7 101 9 99.7 9 98 L 9 84 C 9 82.3 7.7 81 6 81 z M 41 81 C 39.3 81 38 82.3 38 84 L 38 98 C 38 99.7 39.3 101 41 101 C 42.7 101 44 99.7 44 98 L 44 84 C 44 82.3 42.7 81 41 81 z"/></svg>