<?xml version="1.0"?><svg fill="#1565c0" xmlns="http://www.w3.org/2000/svg" viewBox="0 0 128 128" width="64px" height="64px">    <path d="M 33.5 9 C 26.3 9 20.5 14.8 20.5 22 L 20.5 102 C 20.5 109.2 26.3 115 33.5 115 L 66 115 C 67.7 115 69 113.7 69 112 C 69 110.3 67.7 109 66 109 L 33.5 109 C 29.6 109 26.5 105.9 26.5 102 L 26.5 22 C 26.5 18.1 29.6 15 33.5 15 L 94.5 15 C 98.4 15 101.5 18.1 101.5 22 L 101.5 102 C 101.5 105.9 98.4 109 94.5 109 L 91.5 109 C 89.8 109 88.5 110.3 88.5 112 C 88.5 113.7 89.8 115 91.5 115 L 94.5 115 C 101.7 115 107.5 109.2 107.5 102 L 107.5 22 C 107.5 14.8 101.7 9 94.5 9 L 33.5 9 z M 37.5 31 C 35.8 31 34.5 32.3 34.5 34 C 34.5 35.7 35.8 37 37.5 37 L 88.5 37 C 90.2 37 91.5 35.7 91.5 34 C 91.5 32.3 90.2 31 88.5 31 L 37.5 31 z M 37.5 46 C 35.8 46 34.5 47.3 34.5 49 C 34.5 50.7 35.8 52 37.5 52 L 88.5 52 C 90.2 52 91.5 50.7 91.5 49 C 91.5 47.3 90.2 46 88.5 46 L 37.5 46 z M 37.5 61 C 35.8 61 34.5 62.3 34.5 64 C 34.5 65.7 35.8 67 37.5 67 L 61 67 C 62.7 67 64 65.7 64 64 C 64 62.3 62.7 61 61 61 L 37.5 61 z M 78.900391 84.5 C 71.800391 84.5 66 90.500781 66 97.800781 C 66 102.50078 68.4 106.69961 72 109.09961 L 72 119.5 L 79 116.59961 L 85.800781 119.5 L 85.800781 109.09961 C 89.400781 106.69961 91.800781 102.60078 91.800781 97.800781 C 91.800781 90.500781 86.000391 84.5 78.900391 84.5 z M 79 90.5 C 82.8 90.5 85.900391 93.800781 85.900391 97.800781 C 85.900391 101.80078 82.8 105.09961 79 105.09961 C 75.2 105.09961 72.099609 101.80078 72.099609 97.800781 C 72.099609 93.800781 75.2 90.5 79 90.5 z"/></svg>