<svg fill="#1565c0" xmlns="http://www.w3.org/2000/svg" viewBox="0 0 128 128" width="64px" height="64px"><path d="M 24 26 C 16.8 26 11 31.8 11 39 L 11 114 C 11 121.2 16.8 127 24 127 L 104 127 C 111.2 127 117 121.2 117 114 C 117 112.3 115.7 111 114 111 C 112.3 111 111 112.3 111 114 C 111 117.9 107.9 121 104 121 L 24 121 C 20.1 121 17 117.9 17 114 L 17 57 L 104 57 C 107.9 57 111 60.1 111 64 C 111 65.7 112.3 67 114 67 C 115.7 67 117 65.7 117 64 C 117 56.8 111.2 51 104 51 L 17 51 L 17 39 C 17 35.1 20.1 32 24 32 L 114 32 C 115.7 32 117 30.7 117 29 C 117 27.3 115.7 26 114 26 L 24 26 z M 102 78 C 95.9 78 91 82.9 91 89 C 91 95.1 95.9 100 102 100 L 119 100 C 120.7 100 122 98.7 122 97 L 122 81 C 122 79.3 120.7 78 119 78 L 102 78 z"/></svg>