<?xml version="1.0" encoding="utf-8"?>
<!-- Generator: Adobe Illustrator 24.2.0, SVG Export Plug-In . SVG Version: 6.00 Build 0)  -->
<svg version="1.1" id="Layer_1" xmlns="http://www.w3.org/2000/svg" xmlns:xlink="http://www.w3.org/1999/xlink" x="0px" y="0px"
	 viewBox="0 0 165 110" style="enable-background:new 0 0 165 110;" xml:space="preserve">
<style type="text/css">
	.st0{opacity:0.5;}
	.st1{fill:#FFFFFF;}
</style>
<g class="st0">
	<g>
		<path class="st1" d="M46.7,69.7l1.1,0.9v3.8h-1.1v-0.5c-0.4,0.4-0.9,0.6-1.4,0.6c-0.7,0-1.2-0.2-1.6-0.7c-0.4-0.5-0.6-1.1-0.6-1.8
			c0-0.7,0.2-1.3,0.6-1.8c0.4-0.5,0.9-0.7,1.6-0.7c0.5,0,1,0.2,1.5,0.7V69.7z M44.1,72.1c0,0.5,0.1,0.8,0.4,1.1
			c0.2,0.3,0.6,0.4,0.9,0.4c0.4,0,0.7-0.1,1-0.4c0.2-0.3,0.4-0.7,0.4-1.1c0-0.4-0.1-0.8-0.4-1.1c-0.2-0.3-0.6-0.4-1-0.4
			c-0.4,0-0.7,0.1-0.9,0.4C44.2,71.3,44.1,71.7,44.1,72.1z"/>
		<path class="st1" d="M85.7,69.7l1.1,0.9v3.8h-1.1v-0.5c-0.4,0.4-0.9,0.6-1.4,0.6c-0.7,0-1.2-0.2-1.6-0.7c-0.4-0.5-0.6-1.1-0.6-1.8
			c0-0.7,0.2-1.3,0.6-1.8c0.4-0.5,0.9-0.7,1.6-0.7c0.5,0,1,0.2,1.5,0.7V69.7z M83.1,72.1c0,0.5,0.1,0.8,0.4,1.1
			c0.2,0.3,0.6,0.4,0.9,0.4c0.4,0,0.7-0.1,1-0.4c0.2-0.3,0.4-0.7,0.4-1.1c0-0.4-0.1-0.8-0.4-1.1c-0.2-0.3-0.6-0.4-1-0.4
			c-0.4,0-0.7,0.1-0.9,0.4C83.2,71.3,83.1,71.7,83.1,72.1z"/>
		<path class="st1" d="M96.2,67.2v3.1c0.4-0.5,0.9-0.7,1.5-0.7c0.6,0,1.2,0.2,1.6,0.7c0.4,0.5,0.6,1.1,0.6,1.8
			c0,0.7-0.2,1.3-0.6,1.8c-0.4,0.5-1,0.7-1.6,0.7c-0.5,0-1-0.2-1.5-0.6v0.5h-1.1v-8.2L96.2,67.2z M98.8,72.1c0-0.5-0.1-0.8-0.4-1.1
			c-0.2-0.3-0.6-0.4-0.9-0.4c-0.4,0-0.7,0.1-1,0.4c-0.2,0.3-0.4,0.6-0.4,1.1c0,0.5,0.1,0.8,0.4,1.1c0.2,0.3,0.6,0.4,1,0.4
			c0.4,0,0.7-0.1,0.9-0.4C98.7,72.9,98.8,72.5,98.8,72.1z"/>
		<path class="st1" d="M111.7,72.3h-3.4c0,0.4,0.2,0.7,0.4,0.9c0.2,0.2,0.5,0.3,0.9,0.3c0.3,0,0.5-0.1,0.7-0.2
			c0.2-0.1,0.3-0.2,0.5-0.6c0,0,0.7,0.9,0.7,0.9c-0.2,0.2-0.4,0.4-0.6,0.5c-0.2,0.1-0.4,0.2-0.6,0.2c-0.2,0.1-0.4,0.1-0.7,0.1
			c-0.7,0-1.3-0.2-1.7-0.7c-0.4-0.5-0.6-1.1-0.6-1.8c0-0.7,0.2-1.3,0.6-1.8c0.4-0.5,1-0.7,1.7-0.7c0.7,0,1.2,0.2,1.6,0.7
			c0.4,0.4,0.6,1,0.6,1.8L111.7,72.3z M110.6,71.5c-0.2-0.6-0.5-0.9-1.1-0.9c-0.1,0-0.3,0-0.4,0.1c-0.1,0-0.2,0.1-0.3,0.2
			c-0.1,0.1-0.2,0.2-0.2,0.3c-0.1,0.1-0.1,0.2-0.2,0.4H110.6z"/>
		<path class="st1" d="M71.4,66.3l1.1,0.9v3c0.4-0.3,0.8-0.5,1.3-0.5c0.5,0,1,0.2,1.3,0.5c0.3,0.3,0.4,0.8,0.4,1.4v2.9h-1.1v-2.8
			c0-0.4-0.1-0.6-0.2-0.8c-0.1-0.2-0.3-0.3-0.6-0.3c-0.4,0-0.6,0.1-0.8,0.4c-0.2,0.2-0.2,0.6-0.2,1.2v2.3h-1.1V66.3z"/>
		<path class="st1" d="M54.3,67.2v7.3h-1.1v-8.2L54.3,67.2z"/>
		<path class="st1" d="M61.1,77H60v-7.3h1.1v0.5c0.4-0.4,0.9-0.6,1.5-0.6c0.6,0,1.2,0.2,1.6,0.7c0.4,0.5,0.6,1.1,0.6,1.8
			c0,0.7-0.2,1.3-0.6,1.8c-0.4,0.5-0.9,0.7-1.6,0.7c-0.6,0-1-0.2-1.5-0.7V77z M63.6,72.1c0-0.5-0.1-0.8-0.4-1.1
			c-0.2-0.3-0.6-0.4-0.9-0.4c-0.4,0-0.7,0.1-1,0.4c-0.2,0.3-0.4,0.6-0.4,1.1c0,0.4,0.1,0.8,0.4,1.1c0.2,0.3,0.6,0.4,1,0.4
			c0.4,0,0.7-0.1,0.9-0.4C63.5,72.9,63.6,72.5,63.6,72.1z"/>
		<path class="st1" d="M121.2,70.8v3.7h-1.1v-3.7h-0.5v-1h0.5V68l1.1,0.9v0.8h0.8v1H121.2z"/>
	</g>
	<g>
		<path class="st1" d="M84.1,39.1c2.7,2.7,4.1,6,4.1,9.8c0,3.8-1.4,7.1-4.1,9.8c-2.7,2.7-6,4.1-9.8,4.1c-3.8,0-7.1-1.4-9.8-4.1
			c-2.7-2.7-4.1-6-4.1-9.8c0-3.8,1.4-7.1,4.1-9.8c2.7-2.7,6-4.1,9.8-4.1C78.1,35,81.4,36.4,84.1,39.1z M68.4,43
			c-1.6,1.6-2.4,3.6-2.4,5.9c0,2.3,0.8,4.3,2.4,5.9c1.6,1.6,3.6,2.4,5.9,2.4c2.3,0,4.3-0.8,5.9-2.4c1.6-1.6,2.5-3.6,2.5-5.9
			c0-2.3-0.8-4.3-2.5-5.9c-1.6-1.6-3.6-2.5-5.9-2.5C72,40.6,70,41.4,68.4,43z"/>
		<g>
			<polygon class="st1" points="43.2,47.9 43.2,47.9 42.6,46.5 42.3,45.7 42.3,45.7 38,35 26.9,62.8 32.9,62.8 38,50.2 43.1,62.8 
				46.2,55.3 			"/>
			<polygon class="st1" points="48.3,35 45.3,42.7 48.3,50.2 48.3,50.2 53.4,62.8 59.4,62.8 			"/>
		</g>
		<g>
			<polygon class="st1" points="107.4,51.7 114.9,35 113.7,35 110.1,35 109.9,35 108.9,35 104.6,44.7 			"/>
			<polygon class="st1" points="102.4,49.6 102.4,49.6 95.8,35 94.9,35 94.6,35 91,35 89.9,35 101.8,61.5 102.4,62.8 105.2,56.5 			
				"/>
		</g>
		<polygon class="st1" points="126.2,36.4 125.6,35 125,36.3 113.1,62.9 114.2,62.9 117.8,62.9 118,62.9 119,62.9 120.8,58.9 
			120.9,58.7 125.9,58.7 123.4,53.1 123.4,53.1 123.4,53.1 125.6,48.3 127.7,53.1 127.7,53.1 132.2,62.9 133.1,62.9 133.3,62.9 
			136.9,62.9 138.1,62.9 		"/>
	</g>
</g>
</svg>
