<?xml version="1.0" encoding="utf-8"?>
<!-- Generator: Adobe Illustrator 24.2.0, SVG Export Plug-In . SVG Version: 6.00 Build 0)  -->
<svg version="1.1" id="Layer_1" xmlns="http://www.w3.org/2000/svg" xmlns:xlink="http://www.w3.org/1999/xlink" x="0px" y="0px"
	 viewBox="0 0 165 110" style="enable-background:new 0 0 165 110;" xml:space="preserve">
<style type="text/css">
	.st0{opacity:0.5;fill:#FFFFFF;}
</style>
<path class="st0" d="M71.1,53.5h2.5h0.8h1.7h5v-1.3V51v-2.5V47v-1.1v-1.5v-0.3l1.3-1.3l1.3,1.3v0.3v1.5V47v1.5V51v1.2v1.3h5V56H74.5
	h-3.4h-2.5v2.5h2.5h20.2V56v-2.5v-1.3v-0.5v-7.1l2.5,2.5v5.1V56v2.5h2.5V46h0l-2.5-2.5L91.3,41l-0.1-0.2l-2.4-2.4l-2.5-2.5l-2-2
	l1.8-1.8l0.2,0.2l2.5,2.5l2.5,2.5L93,39l0.9,0.9l0,0l2.5,2.5v-3.6l-2.5-2.5l-2.5-2.5l-2.5-2.5l-2.5-2.5l-0.2-0.2l-1.8,1.8l-0.5,0.5
	l-1.3,1.3l-0.6,0.6l-0.6,0.6l-2.5,2.5l-2.5,2.5v-3.6l2.5-2.5l1.4-1.4l1.2-1.1l1.3-1.3l0,0l1.8-1.8l-0.5-0.5L82.5,25l-1.3,1.3
	l-2.5,2.5l-2.5,2.5l-2.5,2.5v3.6v3.2V41v10h-2.5V40.6v-0.7v-3.6l-2.5,2.5v14.6H71.1z M78.7,51h-2.5V42l2.5-2.5l2.5-2.5l1.3-1.3
	l1.3,1.3l2.5,2.5l2.5,2.5V51h-2.5v-2.5v-4v-1.3l-2.5-2.5l-1.3-1.3l-1.3,1.3l-2.5,2.5v1.3v4V51z M39,69.9c0.9-0.5,1.4-1.3,1.4-2.5
	c0-1.8-1.4-2.9-4.1-2.9H31v11.2h5.6c2.9,0,4.4-1.1,4.4-3.1C41,71.2,40.2,70.3,39,69.9L39,69.9z M36,66.1c1.5,0,2.3,0.5,2.3,1.6
	c0,1-0.8,1.5-2.3,1.5h-2.9v-3.1H36z M36.5,74.1h-3.4v-3.2h3.4c1.6,0,2.4,0.5,2.4,1.6C38.9,73.6,38,74.1,36.5,74.1L36.5,74.1z
	 M51.2,75.9c3.1,0,4.9-1.8,4.9-5v-6.3h-2v6.3c0,2.3-1,3.3-2.9,3.3s-2.9-1-2.9-3.3v-6.3h-2.1v6.3C46.3,74.1,48.1,75.9,51.2,75.9
	L51.2,75.9z M62.2,75.7h2.1V64.5h-2.1V75.7z M70.5,75.7h7.9V74h-5.9v-9.5h-2.1V75.7z M83.3,75.7h4.9c3.6,0,6.1-2.3,6.1-5.6
	c0-3.4-2.5-5.6-6.1-5.6h-4.9V75.7z M85.4,74v-7.7h2.7c2.5,0,4.1,1.5,4.1,3.8c0,2.3-1.6,3.9-4.1,3.9H85.4z M99.7,75.7h2.1V64.5h-2.1
	V75.7z M115.9,64.5v7.6l-6.2-7.6H108v11.2h2.1v-7.6l6.2,7.6h1.7V64.5H115.9z M131.9,73.5c-0.7,0.4-1.5,0.6-2.3,0.6
	c-2.4,0-4.1-1.7-4.1-4c0-2.3,1.7-3.9,4.1-3.9c1.2,0,2.2,0.4,3.1,1.3l1.3-1.3c-1.1-1.2-2.6-1.8-4.5-1.8c-3.5,0-6.1,2.4-6.1,5.8
	c0,3.4,2.6,5.8,6,5.8c1.6,0,3.2-0.5,4.4-1.4V70h-2V73.5z M60.9,85c0.8,0,1.4-0.3,1.9-0.8l-0.6-0.5c-0.3,0.4-0.8,0.5-1.3,0.5
	c-1,0-1.7-0.7-1.7-1.6c0-1,0.7-1.6,1.7-1.6c0.5,0,0.9,0.2,1.3,0.5l0.6-0.5c-0.4-0.5-1.1-0.8-1.9-0.8c-1.4,0-2.5,1-2.5,2.4
	C58.4,84,59.5,85,60.9,85L60.9,85z M67.7,85c1.5,0,2.5-1,2.5-2.4c0-1.4-1.1-2.4-2.5-2.4s-2.5,1-2.5,2.4C65.2,84,66.3,85,67.7,85
	L67.7,85z M67.7,84.2c-1,0-1.6-0.7-1.6-1.6c0-1,0.7-1.6,1.6-1.6s1.6,0.7,1.6,1.6C69.4,83.5,68.7,84.2,67.7,84.2L67.7,84.2z
	 M78.4,84.9v-4.7h-0.7l-1.8,3.1l-1.9-3.1h-0.7v4.7H74v-3.1l1.5,2.5H76l1.5-2.6v3.1H78.4z M83.6,80.2h-1.9v4.7h0.9v-1.4h1.1
	c1.2,0,2-0.6,2-1.7S84.8,80.2,83.6,80.2L83.6,80.2z M83.5,82.8h-1V81h1c0.8,0,1.2,0.3,1.2,0.9C84.7,82.5,84.3,82.8,83.5,82.8
	L83.5,82.8z M91.7,84.9h0.9l-2.1-4.7h-0.9l-2.1,4.7h0.9l0.5-1.1h2.4L91.7,84.9z M89.2,83.2l0.9-2l0.9,2H89.2z M98.6,80.2v3.2
	L96,80.2h-0.7v4.7h0.9v-3.2l2.6,3.2h0.7v-4.7H98.6z M106.6,80.2h-0.9l-1.4,2.3l-1.4-2.3H102l1.8,3.1v1.6h0.9v-1.6L106.6,80.2z"/>
</svg>
