<svg fill="#ffffff" xmlns="http://www.w3.org/2000/svg" viewBox="0 0 128 128" width="64px" height="64px"><path d="M 34.199219 5.6992188 C 19.899219 5.6992187 7.6007813 15.800781 4.8007812 29.800781 C 0.40078125 52.300781 0.40078125 75.099609 4.8007812 97.599609 C 7.6007812 111.59961 19.899609 121.69922 34.099609 121.69922 C 35.799609 121.69922 37.099609 120.39922 37.099609 118.69922 C 37.099609 116.99922 35.799609 115.69922 34.099609 115.69922 C 22.699609 115.69922 12.899219 107.60039 10.699219 96.400391 C 6.3992188 74.700391 6.3992188 52.600391 10.699219 30.900391 C 12.899219 19.700391 22.799609 11.599609 34.099609 11.599609 C 35.099609 11.599609 35.700391 12.100391 35.900391 12.400391 C 36.200391 12.700391 36.6 13.400781 36.5 14.300781 L 34.099609 32.199219 C 33.599609 35.599219 30.699219 38.199219 27.199219 38.199219 C 22.799219 38.199219 19.400391 37.099609 19.400391 37.099609 C 18.500391 36.799609 17.499219 37 16.699219 37.5 C 15.899219 38.1 15.5 39.000391 15.5 39.900391 L 15.5 89.099609 C 15.5 90.299609 16.199219 91.300781 17.199219 91.800781 C 18.199219 92.300781 19.500391 92.100391 20.400391 91.400391 C 20.400391 91.400391 23.599219 88.800781 27.199219 88.800781 C 30.699219 88.800781 33.599609 91.400781 34.099609 94.800781 L 35.400391 104.19922 C 35.600391 105.79922 37.100781 107.00078 38.800781 106.80078 C 40.400781 106.60078 41.600391 105.10039 41.400391 103.40039 L 40.099609 94 C 39.299609 87.8 33.800391 83 27.400391 83 C 25.300391 83 23.299219 83.499609 21.699219 84.099609 L 21.699219 43.900391 C 23.299219 44.200391 25.300391 44.400391 27.400391 44.400391 C 33.800391 44.400391 39.299219 39.599219 40.199219 33.199219 L 42.599609 15.300781 C 42.899609 12.900781 42.199609 10.499609 40.599609 8.5996094 C 38.999609 6.7996094 36.699219 5.6992188 34.199219 5.6992188 z M 80.5 29 C 54.9 29 34 49.9 34 75.5 C 34 77.2 35.3 78.5 37 78.5 C 38.7 78.5 40 77.2 40 75.5 C 40 53.2 58.2 35 80.5 35 C 102.8 35 121 53.2 121 75.5 C 121 97.8 102.8 116 80.5 116 L 47.900391 116 C 46.200391 116 44.900391 117.3 44.900391 119 C 44.900391 120.7 46.200391 122 47.900391 122 L 80.5 122 C 106.1 122 127 101.1 127 75.5 C 127 49.9 106.1 29 80.5 29 z M 61.900391 68.800781 C 60.200391 68.800781 58.900391 70.100781 58.900391 71.800781 C 58.900391 73.500781 60.200391 74.800781 61.900391 74.800781 L 93 74.800781 C 94.7 74.800781 96 73.500781 96 71.800781 C 96 70.100781 94.7 68.800781 93 68.800781 L 61.900391 68.800781 z M 61.900391 87.400391 C 60.200391 87.400391 58.900391 88.700391 58.900391 90.400391 C 58.900391 92.100391 60.200391 93.400391 61.900391 93.400391 L 93 93.400391 C 94.7 93.400391 96 92.100391 96 90.400391 C 96 88.700391 94.7 87.400391 93 87.400391 L 61.900391 87.400391 z"/></svg>