<?xml version="1.0" encoding="utf-8"?>
<!-- Generator: Adobe Illustrator 16.0.0, SVG Export Plug-In . SVG Version: 6.00 Build 0)  -->
<!DOCTYPE svg PUBLIC "-//W3C//DTD SVG 1.1//EN" "http://www.w3.org/Graphics/SVG/1.1/DTD/svg11.dtd">
<svg version="1.1" id="Layer_1" xmlns="http://www.w3.org/2000/svg" xmlns:xlink="http://www.w3.org/1999/xlink" x="0px" y="0px"
	 width="120px" height="30px" viewBox="0 0 120 30" enable-background="new 0 0 120 30" xml:space="preserve">
<g>
	<path d="M9.087,8.064v5.769c0,1.151-0.272,2.075-0.794,2.748c-0.521,0.674-1.228,1.012-2.118,1.012
		c-0.804,0-1.38-0.197-1.738-0.598c-0.359-0.4-0.533-1.055-0.533-1.967V8.064H2.046v7.419c0,1.228,0.315,2.14,0.945,2.761
		c0.62,0.609,1.554,0.912,2.803,0.912c1.184,0,2.184-0.457,2.966-1.379c0.152-0.174,0.293-0.359,0.413-0.555v1.641h1.76V8.064H9.087
		z"/>
	<path d="M20.613,8.064l-2.977,8.942l-2.944-8.942h-2.108l4.085,10.985l-0.033,0.174c-0.359,0.922-0.674,1.553-0.956,1.887
		c-0.283,0.338-0.63,0.502-1.054,0.502c-0.423-0.01-0.782-0.055-1.064-0.164v1.686c0.271,0.088,0.576,0.119,0.901,0.107
		c1.011,0,1.76-0.25,2.271-0.758c0.5-0.512,1.076-1.6,1.717-3.26l4.194-11.159H20.613z"/>
	<path d="M31.661,8.064v1.553L31.52,9.433c-0.771-1.13-1.825-1.684-3.14-1.684c-1.39,0-2.51,0.5-3.368,1.488
		c-0.858,1-1.292,2.303-1.292,3.933c0,1.834,0.434,3.292,1.314,4.368c0.87,1.088,2.042,1.619,3.521,1.619
		c1.227,0,2.216-0.477,2.976-1.436l0.011-0.01v0.359c0,1.258-0.271,2.215-0.826,2.869c-0.565,0.662-1.369,0.986-2.433,0.986
		c-0.641,0-1.173-0.162-1.586-0.469c-0.424-0.314-0.685-0.758-0.793-1.334h-1.891c0.152,1.072,0.586,1.887,1.326,2.455
		c0.738,0.564,1.727,0.844,2.977,0.844c1.716,0,2.998-0.434,3.824-1.313c0.836-0.869,1.249-2.217,1.26-4.041V8.064H31.661z
		 M30.813,16.594c-0.554,0.66-1.271,0.986-2.173,0.986c-0.957,0-1.684-0.346-2.205-1.064c-0.521-0.728-0.782-1.739-0.782-3.064
		c0-1.413,0.239-2.434,0.717-3.085c0.478-0.641,1.239-0.967,2.271-0.967c1,0,1.749,0.38,2.249,1.151c0.5,0.76,0.75,1.901,0.75,3.433
		C31.639,15.071,31.367,15.939,30.813,16.594z"/>
	<path d="M43.056,8.064v5.769c0,1.151-0.26,2.075-0.782,2.748c-0.521,0.674-1.228,1.012-2.119,1.012
		c-0.804,0-1.38-0.197-1.738-0.598c-0.358-0.4-0.533-1.055-0.533-1.967V8.064h-1.857v7.419c0,1.228,0.315,2.14,0.934,2.761
		c0.63,0.609,1.564,0.912,2.814,0.912c1.184,0,2.172-0.457,2.966-1.379c0.152-0.174,0.282-0.359,0.413-0.555v1.641h1.76V8.064
		H43.056z"/>
	<path d="M47.728,4.033v14.83h1.857V4.033H47.728z"/>
	<path d="M61.84,17.604c-0.108,0.02-0.196,0.02-0.25,0.02c-0.184,0-0.348-0.055-0.455-0.162c-0.109-0.109-0.174-0.26-0.174-0.445
		v-5.932c0-1.086-0.348-1.912-1.044-2.488c-0.706-0.564-1.715-0.847-3.063-0.847c-1.412,0-2.509,0.293-3.27,0.891
		c-0.761,0.597-1.184,1.488-1.271,2.672h1.706c0.087-0.685,0.348-1.206,0.782-1.553c0.424-0.348,1.022-0.522,1.782-0.522
		c0.792,0,1.413,0.164,1.857,0.489c0.446,0.326,0.674,0.783,0.674,1.358v0.097c0,0.272-0.066,0.5-0.196,0.686
		c-0.129,0.173-0.314,0.303-0.553,0.357c-0.185,0.044-0.38,0.087-0.587,0.098l-2.52,0.315c-1.142,0.141-2.01,0.5-2.608,1.075
		c-0.586,0.565-0.88,1.335-0.88,2.303c0,0.967,0.316,1.729,0.946,2.295c0.63,0.563,1.478,0.846,2.564,0.846
		c1.336,0,2.465-0.402,3.389-1.219c0.185-0.15,0.337-0.314,0.478-0.488c0.087,0.457,0.24,0.816,0.446,1.066
		c0.315,0.369,0.815,0.564,1.521,0.564c0.13,0,0.305-0.021,0.499-0.066c0.197-0.031,0.393-0.088,0.566-0.16v-1.305
		C62.057,17.568,61.938,17.592,61.84,17.604z M59.113,14.582c0,0.24-0.011,0.457-0.033,0.654c-0.011,0.184-0.033,0.324-0.064,0.411
		c-0.143,0.457-0.457,0.869-0.914,1.229c-0.673,0.52-1.499,0.781-2.466,0.781c-0.619,0-1.097-0.162-1.434-0.488
		c-0.337-0.326-0.5-0.792-0.5-1.402c0-0.489,0.207-0.879,0.619-1.161c0.402-0.283,1.054-0.489,1.945-0.608l1.706-0.25
		c0.412-0.055,0.793-0.164,1.141-0.327V14.582z"/>
	<path d="M77.993,8.672c-0.63-0.619-1.521-0.923-2.672-0.923c-1.108,0-2.053,0.456-2.857,1.358l-0.292,0.369
		c-0.143-0.326-0.349-0.619-0.61-0.869c-0.587-0.576-1.369-0.858-2.357-0.858c-1.153,0-2.142,0.478-2.977,1.444l-0.381,0.479V8.064
		h-1.76v10.799h1.858v-5.781c0-1.086,0.26-1.966,0.782-2.65C67.26,9.748,67.934,9.4,68.758,9.4c0.588,0,1.043,0.173,1.358,0.532
		c0.314,0.348,0.468,0.87,0.468,1.543v7.388h1.859V12.8c0-1.043,0.227-1.869,0.704-2.478c0.478-0.619,1.11-0.922,1.914-0.922
		c0.661,0,1.16,0.217,1.509,0.641c0.337,0.424,0.511,1.043,0.511,1.858v6.964h1.846V11.29C78.927,10.16,78.623,9.281,77.993,8.672z"
		/>
	<path d="M91.106,17.604c-0.098,0.02-0.185,0.02-0.239,0.02c-0.197,0-0.348-0.055-0.457-0.162c-0.109-0.109-0.175-0.26-0.175-0.445
		v-5.932c0-1.086-0.346-1.912-1.04-2.488c-0.707-0.564-1.729-0.847-3.064-0.847c-1.413,0-2.51,0.293-3.271,0.891
		c-0.76,0.597-1.183,1.488-1.271,2.672h1.704c0.087-0.685,0.348-1.206,0.771-1.553c0.436-0.348,1.032-0.522,1.794-0.522
		c0.792,0,1.412,0.164,1.857,0.489c0.443,0.326,0.672,0.783,0.672,1.358v0.097c0,0.272-0.065,0.5-0.195,0.686
		c-0.131,0.173-0.315,0.303-0.554,0.357c-0.186,0.044-0.381,0.087-0.587,0.098l-2.521,0.315c-1.14,0.141-2.009,0.5-2.605,1.075
		c-0.587,0.565-0.889,1.335-0.889,2.303c0,0.967,0.313,1.729,0.955,2.295c0.63,0.563,1.477,0.846,2.563,0.846
		c1.334,0,2.467-0.402,3.39-1.219c0.184-0.15,0.338-0.314,0.476-0.488c0.087,0.457,0.229,0.816,0.445,1.066
		c0.305,0.369,0.815,0.564,1.521,0.564c0.131,0,0.304-0.021,0.5-0.066c0.196-0.031,0.391-0.088,0.565-0.16v-1.305
		C91.335,17.568,91.214,17.592,91.106,17.604z M88.391,14.582c0,0.24-0.011,0.457-0.033,0.654c-0.011,0.184-0.033,0.324-0.065,0.411
		c-0.153,0.457-0.455,0.869-0.911,1.229c-0.675,0.52-1.501,0.781-2.468,0.781c-0.617,0-1.099-0.162-1.433-0.488
		c-0.338-0.326-0.513-0.792-0.513-1.402c0-0.489,0.205-0.879,0.63-1.161c0.402-0.283,1.055-0.489,1.945-0.608l1.703-0.25
		c0.414-0.055,0.794-0.164,1.142-0.327v1.161H88.391z"/>
</g>
<path fill="#319AD5" d="M100.47,10.989c0.445,0.596,0.668,1.422,0.668,2.477c0,1.037-0.223,1.845-0.668,2.429
	c-0.447,0.579-1.067,0.874-1.862,0.874c-0.79,0-1.405-0.285-1.843-0.849c-0.446-0.564-0.67-1.351-0.67-2.352
	c0-1.09,0.224-1.941,0.67-2.553c0.446-0.613,1.063-0.919,1.851-0.919C99.403,10.096,100.022,10.396,100.47,10.989z"/>
<path fill="#319AD5" d="M92.541,1.35v26.019h24.54V1.35H92.541z M102.871,17.516c-0.858,1.086-1.998,1.631-3.422,1.631
	c-1.292,0-2.347-0.512-3.15-1.533l-0.118-0.164v1.414h-2.89V4.033h2.957v5.291l0.053-0.087c0.792-1.097,1.848-1.64,3.149-1.64
	c1.425,0,2.563,0.511,3.421,1.542c0.87,1.033,1.303,2.391,1.303,4.063C104.174,14.984,103.74,16.418,102.871,17.516z
	 M113.182,17.787c-0.728,0.912-1.782,1.359-3.162,1.359c-1.185,0-2.106-0.338-2.771-1.023c-0.651-0.684-0.989-1.629-0.989-2.834
	V7.89h2.957v6.865c0,0.674,0.152,1.174,0.444,1.5c0.294,0.325,0.749,0.478,1.357,0.478c0.761,0,1.358-0.227,1.772-0.684
	c0.412-0.457,0.617-1.11,0.617-1.979V7.89h2.944v10.973h-2.802v-1.641C113.441,17.418,113.321,17.613,113.182,17.787z
	 M116.581,26.521h-2.598v-2.543h2.598V26.521z"/>
<line fill="none" stroke="#000000" stroke-width="0.5" stroke-miterlimit="10" x1="117.953" y1="1.354" x2="117.953" y2="27.369"/>
<radialGradient id="SVGID_1_" cx="978.2109" cy="-460.9883" r="7.1303" gradientTransform="matrix(0.42 0 0 -0.4119 -312.2322 -176.4485)" gradientUnits="userSpaceOnUse">
	<stop  offset="0" style="stop-color:#FFFFFF"/>
	<stop  offset="1" style="stop-color:#000000"/>
</radialGradient>
<path opacity="0.1" fill="url(#SVGID_1_)" enable-background="new    " d="M100.47,10.989c0.445,0.596,0.668,1.422,0.668,2.477
	c0,1.037-0.223,1.845-0.668,2.429c-0.447,0.579-1.067,0.874-1.862,0.874c-0.79,0-1.405-0.285-1.843-0.849
	c-0.446-0.564-0.67-1.351-0.67-2.352c0-1.09,0.224-1.941,0.67-2.553c0.446-0.613,1.063-0.919,1.851-0.919
	C99.403,10.096,100.022,10.396,100.47,10.989z"/>
</svg>
