<svg xmlns="http://www.w3.org/2000/svg" viewBox="0 0 128 128" width="64px" height="64px"><path fill="#fff" d="M32.7,108.6c0,0-14-57.9,60.6-76.8c0,0,7.7-2.8,8.7-4.1L84.9,51.4C70.2,73.2,57,85.1,41,100.6L32.7,108.6z"/><path fill="#d3d8dd" d="M32.7,108.6l69.3-80.9c0-0.2,0.6,20-6.2,40.4C94.7,71.5,85.6,69.7,84,73c-1.1,2.3,5.5,9.8,4.1,12C78.2,101,61.4,113,32.7,108.6L32.7,108.6z"/><path fill="#444b54" d="M105 27.9c0-.6-.1-1.2-.4-1.7-.2-.4-.4-.6-.6-.8l0 0c-.1-.1-.3-.2-.4-.3-1.4-.9-3.3-.4-4.1 1C88 44.8 74.8 57.4 62 69.6 52.2 78.9 42.8 87.9 34.7 99c-.1-5.1.4-12 2.7-19.4C43.8 59.4 60.3 45 86.6 36.8c1.6-.5 2.5-2.2 2-3.8-.5-1.6-2.2-2.5-3.8-2-19.5 6.1-44.6 19.2-53.2 47-4 12.9-3 24.2-2.2 28.9-3 4.9-5.8 10.3-8.2 16.2-.6 1.5.1 3.3 1.6 3.9.4.2.8.2 1.1.2 1.2 0 2.3-.7 2.8-1.9 2-5 4.3-9.5 6.8-13.7 3.8.5 7.4.8 10.9.8 20 0 35.5-8.6 46.1-25.8.9-1.4.4-3.3-1-4.1-1.4-.9-3.3-.4-4.1 1-10.7 17.2-26.9 24.8-48.4 22.5C45.4 93.7 55.6 84 66.1 74 77 63.5 88.3 52.8 98.6 38.3c-.6 7.3-2 17.4-5.2 27.6l-10.6 4.3c-1.5.6-2.3 2.4-1.6 3.9.5 1.2 1.6 1.9 2.8 1.9.4 0 .8-.1 1.1-.2L97 70.9c.8-.3 1.4-1 1.7-1.8 3.6-10.8 5.1-21.4 5.8-28.5C105.1 33.4 105.2 29.8 105 27.9zM89 127H49c-1.7 0-3-1.3-3-3s1.3-3 3-3h40c1.7 0 3 1.3 3 3S90.7 127 89 127zM104 127c-.8 0-1.6-.3-2.1-.9-.6-.6-.9-1.3-.9-2.1s.3-1.6.9-2.1c1.1-1.1 3.1-1.1 4.2 0 .1.1.3.3.4.5.1.2.2.3.3.5.1.2.1.4.2.6 0 .2.1.4.1.6 0 .8-.3 1.6-.9 2.1C105.6 126.7 104.8 127 104 127z"/></svg>