<svg xmlns="http://www.w3.org/2000/svg"  viewBox="0 0 128 128" width="64px" height="64px"><path fill="#444b54" d="M117.1 40.6c-.7-1.5-2.4-2.2-4-1.5-1.5.7-2.2 2.4-1.5 4 8.7 19.8 4.5 42.5-10.8 57.8-18.7 18.7-48.2 20.1-68.6 4.3l5.3-.6c1.6-.2 2.8-1.7 2.6-3.3-.2-1.6-1.7-2.8-3.3-2.6l-12 1.4c0 0-.1 0-.1 0-.1 0-.2 0-.3.1-.1 0-.2 0-.3.1-.1 0-.2.1-.3.1-.1 0-.2.1-.3.1-.1 0-.1.1-.2.1-.1.1-.2.1-.3.2 0 0-.1.1-.1.1 0 0 0 .1-.1.1-.1.1-.1.2-.2.3-.1.1-.1.1-.1.2-.1.1-.1.2-.1.3 0 .1-.1.2-.1.2 0 .1-.1.2-.1.3 0 .1 0 .2-.1.3 0 .1 0 .2 0 .3 0 .1 0 .2 0 .3 0 0 0 .1 0 .1l.7 11.3c.1 1.6 1.4 2.8 3 2.8.1 0 .1 0 .2 0 1.7-.1 2.9-1.5 2.8-3.2l-.2-4.1C38.9 117.9 51.5 122 64 122c14.9 0 29.7-5.7 41-17C122.1 88 126.8 62.7 117.1 40.6zM27.2 27.2C45.9 8.5 75.5 7.1 95.9 22.9l-5.3.6c-1.6.2-2.8 1.7-2.6 3.3.2 1.5 1.5 2.6 3 2.6.1 0 .2 0 .4 0l12-1.4c0 0 .1 0 .1 0 .1 0 .2 0 .3-.1.1 0 .2 0 .3-.1.1 0 .2-.1.3-.1.1 0 .2-.1.3-.1.1 0 .1-.1.2-.1.1-.1.2-.1.3-.2 0 0 .1-.1.1-.1 0 0 0-.1.1-.1.1-.1.1-.2.2-.3.1-.1.1-.1.1-.2.1-.1.1-.2.1-.3 0-.1.1-.2.1-.2 0-.1.1-.2.1-.3 0-.1 0-.2.1-.3 0-.1 0-.2 0-.3 0-.1 0-.2 0-.3 0 0 0-.1 0-.1l-.7-11.3c-.1-1.7-1.5-2.9-3.2-2.8-1.7.1-2.9 1.5-2.8 3.2l.2 4.1C76.7.5 43.8 2.1 23 23 6 39.9 1.2 65.1 10.8 87.1c.5 1.1 1.6 1.8 2.8 1.8.4 0 .8-.1 1.2-.2 1.5-.7 2.2-2.4 1.6-3.9C7.7 65 12 42.4 27.2 27.2z"/><g><path fill="#71c2ff" d="M75.5,41H52.5c-1.1,0-2.1,0.6-2.6,1.5l-11.5,20c-0.5,0.9-0.5,2.1,0,3l11.5,20c0.5,0.9,1.5,1.5,2.6,1.5h23.1c1.1,0,2.1-0.6,2.6-1.5l11.5-20c0.5-0.9,0.5-2.1,0-3l-11.5-20C77.6,41.6,76.6,41,75.5,41z"/><path fill="#fff" d="M64 52.5A11.5 11.5 0 1 0 64 75.5A11.5 11.5 0 1 0 64 52.5Z"/></g></svg>