<?xml version="1.0" encoding="utf-8"?>
<!-- Generator: Adobe Illustrator 16.0.0, SVG Export Plug-In . SVG Version: 6.00 Build 0)  -->
<!DOCTYPE svg PUBLIC "-//W3C//DTD SVG 1.1//EN" "http://www.w3.org/Graphics/SVG/1.1/DTD/svg11.dtd">
<svg version="1.1" id="Layer_1" xmlns="http://www.w3.org/2000/svg" xmlns:xlink="http://www.w3.org/1999/xlink" x="0px" y="0px"
	 width="100px" height="100px" viewBox="0 0 100 100" enable-background="new 0 0 100 100" xml:space="preserve">
<path fill-rule="evenodd" clip-rule="evenodd" fill="#00ACD1" d="M52.61,29.019v49.409c-0.322-0.568-0.629-1.103-0.931-1.637
	c-2.497-4.397-4.914-8.847-7.514-13.188c-6.542-10.931-13.183-21.802-19.731-32.73c-1.552-2.583-2.88-5.294-4.313-7.948
	c-0.252-0.463-0.495-0.927-0.776-1.454c0.192-0.013,0.316-0.027,0.44-0.027c8.972,0,17.947,0,26.922-0.007
	c0.272,0,0.433,0.087,0.592,0.305c1.715,2.368,3.444,4.721,5.166,7.079C52.512,28.886,52.558,28.947,52.61,29.019z"/>
<path fill-rule="evenodd" clip-rule="evenodd" fill="none" stroke="#00AEEF" stroke-miterlimit="10" d="M52.99,23.731
	c2.178-3.146,4.362-6.291,6.519-9.447c0.239-0.352,0.497-0.469,0.909-0.469c11.195,0.012,22.392,0.008,33.59,0.008h0.679
	c-0.102,0.218-0.151,0.376-0.234,0.518C83.954,33.004,74.016,51.973,63.757,70.766c-3.549,6.498-7.173,12.955-10.767,19.434
	c-0.077,0.134-0.164,0.263-0.284,0.458c-0.503-0.882-0.964-1.695-1.423-2.506c-3.357-5.907-6.603-11.881-10.091-17.71
	c-8.781-14.681-17.704-29.279-26.503-43.951c-2.078-3.471-3.864-7.118-5.786-10.679c-0.334-0.624-0.666-1.246-1.043-1.951
	c0.253-0.019,0.42-0.038,0.586-0.038c12.051,0,24.105,0,36.157-0.008c0.367,0,0.581,0.12,0.795,0.411
	c2.302,3.179,4.625,6.339,6.939,9.507c0.1,0.13,0.193,0.255,0.326,0.431C52.785,24.001,52.892,23.873,52.99,23.731z"/>
<path fill-rule="evenodd" clip-rule="evenodd" fill="#00ACD1" d="M84.121,21.329c-0.078,0.166-0.117,0.277-0.177,0.386
	C76.127,35.61,68.726,49.736,61.085,63.731c-2.637,4.836-5.339,9.646-8.015,14.47c-0.057,0.1-0.123,0.196-0.211,0.342
	c-0.043-0.077-0.087-0.152-0.131-0.228V28.903c0.031,0.04,0.063,0.08,0.097,0.126c0.089-0.122,0.171-0.215,0.245-0.32
	c1.622-2.342,3.245-4.685,4.857-7.038c0.176-0.259,0.364-0.349,0.674-0.349c8.335,0.012,16.673,0.006,25.014,0.006H84.121z"/>
<path opacity="0.2" fill-rule="evenodd" clip-rule="evenodd" d="M84.121,21.33c-0.078,0.166-0.117,0.277-0.177,0.385
	c-7.817,13.896-15.219,28.021-22.859,42.017c-2.637,4.836-5.339,9.647-8.015,14.47c-0.057,0.101-0.123,0.196-0.211,0.342
	c-0.043-0.076-0.087-0.151-0.131-0.228V28.903c0.031,0.04,0.063,0.081,0.097,0.126c0.089-0.121,0.171-0.215,0.245-0.32
	c1.622-2.341,3.245-4.685,4.857-7.038c0.176-0.259,0.364-0.348,0.674-0.348c8.335,0.011,16.673,0.007,25.014,0.007H84.121z"/>
</svg>
