<?xml version="1.0" encoding="utf-8"?>
<!-- Generator: Adobe Illustrator 16.0.0, SVG Export Plug-In . SVG Version: 6.00 Build 0)  -->
<!DOCTYPE svg PUBLIC "-//W3C//DTD SVG 1.1//EN" "http://www.w3.org/Graphics/SVG/1.1/DTD/svg11.dtd">
<svg version="1.1" id="Layer_1" xmlns="http://www.w3.org/2000/svg" xmlns:xlink="http://www.w3.org/1999/xlink" x="0px" y="0px"
	 width="100px" height="100px" viewBox="0 0 100 100" enable-background="new 0 0 100 100" xml:space="preserve">
<g>
	<path fill-rule="evenodd" clip-rule="evenodd" fill="#00ACD1" d="M54.188,83.822c-1.032,0.246-2.097,0.363-3.147,0.523
		c-2.333,0.354-4.36-1.049-4.86-3.373c-0.168-0.773-0.271-1.561-0.415-2.414c-0.157,0.105-0.26,0.154-0.334,0.229
		c-2.22,2.217-4.452,4.424-6.647,6.662c-0.92,0.939-0.531,2.125,0.754,2.398c1.208,0.256,2.424,0.508,3.647,0.674
		c0.579,0.078,0.759,0.34,0.846,0.855c0.211,1.248,0.428,2.494,0.713,3.725c0.281,1.205,1.425,1.578,2.297,0.723
		c3.078-3.027,6.12-6.09,9.188-9.152C55.707,83.781,55.063,83.611,54.188,83.822z M83.824,85.23
		c-2.077-2.076-4.15-4.156-6.229-6.229c-0.154-0.152-0.334-0.271-0.555-0.451c-0.149,0.885-0.253,1.68-0.419,2.461
		c-0.48,2.266-2.524,3.684-4.805,3.34c-1.109-0.166-2.225-0.316-3.317-0.561c-0.867-0.191-1.442,0.088-1.882,0.814
		c0.054,0.08,0.087,0.162,0.145,0.219c2.97,2.975,5.932,5.955,8.921,8.914c0.973,0.963,2.152,0.588,2.44-0.754
		c0.259-1.209,0.485-2.428,0.673-3.648c0.079-0.508,0.271-0.725,0.797-0.801c1.138-0.166,2.26-0.436,3.391-0.631
		c0.66-0.113,1.234-0.295,1.466-1.008C84.686,86.172,84.289,85.693,83.824,85.23z M65.351,31.67
		c-0.202-0.01-0.404-0.005-0.605-0.005c-10.605,0-21.209,0-31.814,0.002c-0.288,0-0.576-0.015-0.862,0.014
		c-1.295,0.137-2.187,1.302-1.971,2.559c0.181,1.033,1.118,1.747,2.348,1.749c5.475,0.005,10.95,0.002,16.423,0.002
		c5.476,0,10.95,0.005,16.427-0.005c1.335-0.002,2.33-0.958,2.32-2.165C67.604,32.665,66.611,31.721,65.351,31.67z M67.024,21.354
		c-0.517-0.413-1.266-0.74-1.917-0.747c-5.417-0.058-10.835-0.031-16.253-0.031h-6.917c-3.2,0-6.4-0.012-9.598,0.005
		c-1.441,0.007-2.415,1.098-2.251,2.455c0.132,1.11,1.09,1.867,2.421,1.867c10.866,0.005,21.73,0.003,32.597,0
		c0.202,0,0.406,0.012,0.604-0.024c0.859-0.158,1.453-0.649,1.771-1.468C67.788,22.623,67.626,21.834,67.024,21.354z M79.883,66.225
		c-0.464-0.885-0.472-1.754-0.003-2.641c0.563-1.068,1.122-2.141,1.656-3.223c0.739-1.506,0.294-2.854-1.194-3.631
		c-1.072-0.559-2.16-1.086-3.239-1.627c-0.891-0.445-1.402-1.15-1.534-2.148c-0.154-1.17-0.335-2.336-0.521-3.501
		c-0.27-1.672-1.485-2.555-3.145-2.285c-1.051,0.17-2.105,0.332-3.149,0.533c-1.226,0.238-2.262,0.002-3.119-0.975
		c-0.666-0.76-1.405-1.447-2.116-2.163c-1.442-1.451-2.793-1.442-4.251,0.026c-0.692,0.695-1.417,1.36-2.056,2.1
		c-0.875,1.01-1.933,1.257-3.193,1.01c-1.014-0.199-2.04-0.354-3.065-0.51c-1.783-0.27-2.945,0.61-3.205,2.402
		c-0.161,1.11-0.356,2.218-0.495,3.33c-0.135,1.074-0.699,1.793-1.655,2.254c-1.036,0.502-2.066,1.016-3.087,1.545
		c-1.542,0.797-1.985,2.135-1.216,3.688c0.524,1.057,1.067,2.105,1.622,3.146c0.488,0.914,0.478,1.805-0.005,2.719
		c-0.553,1.041-1.096,2.09-1.617,3.146c-0.766,1.549-0.322,2.893,1.216,3.688c1.023,0.531,2.054,1.043,3.089,1.543
		c0.959,0.461,1.518,1.182,1.653,2.252c0.139,1.115,0.334,2.221,0.495,3.334c0.26,1.785,1.437,2.682,3.215,2.416
		c1.137-0.17,2.277-0.346,3.406-0.572c1.031-0.203,1.871,0.082,2.593,0.813c0.687,0.699,1.374,1.396,2.062,2.096
		c1.792,1.82,2.964,1.828,4.734,0.029c0.688-0.699,1.375-1.396,2.06-2.098c0.739-0.754,1.602-1.041,2.669-0.832
		c1.297,0.258,2.611,0.422,3.721,0.6c1.63,0.027,2.619-0.879,2.851-2.42c0.172-1.137,0.36-2.275,0.512-3.414
		c0.132-0.998,0.634-1.703,1.532-2.148c1.058-0.523,2.114-1.045,3.161-1.586c1.592-0.818,2.03-2.152,1.238-3.748
		C80.976,68.316,80.431,67.27,79.883,66.225z M61.387,79.773c-8.45-0.014-15.271-6.865-15.228-15.299
		c0.041-8.414,6.854-15.199,15.253-15.189c8.434,0.01,15.278,6.886,15.234,15.306C76.604,73.01,69.79,79.787,61.387,79.773z
		 M61.42,51.484c-7.184-0.018-13.021,5.809-13.036,13.01c-0.017,7.193,5.8,13.02,13.005,13.031c7.203,0.014,13.024-5.789,13.038-13
		C74.443,57.338,68.625,51.504,61.42,51.484z"/>
	<path fill-rule="evenodd" clip-rule="evenodd" fill="#00ACD1" d="M72.994,5.71c0.97,0.416,2.029,0.697,2.89,1.275
		c1.799,1.21,2.623,3.047,2.622,5.182c0,11.904-0.037,23.809-0.063,35.713c0,0.051-0.03,0.101-0.09,0.293
		c-0.559-1.706-1.422-3.175-3.02-3.745c-1.421-0.507-1.476-1.367-1.471-2.588c0.039-9.685,0.022-19.37,0.021-29.055
		c0-1.95-0.497-2.445-2.459-2.445c-15.017,0-30.034,0-45.052,0c-2.005,0-2.505,0.5-2.505,2.498c0,20.004,0,40.007,0,60.013
		c0,1.934,0.52,2.453,2.465,2.455c3.92,0.002,7.84,0.012,11.76-0.01c0.879-0.004,1.682,0.051,2.422,0.637
		c0.509,0.402,1.156,0.631,1.856,0.998c-0.974,0.971-1.887,1.92-2.853,2.811c-0.191,0.178-0.584,0.186-0.884,0.188
		c-4.18,0.01-8.359,0.012-12.539,0.004c-4.188-0.008-6.858-2.67-6.863-6.863c-0.01-8.619-0.003-17.238-0.003-25.856
		c0-11.53-0.001-23.06,0-34.589c0-2.792,1.073-4.977,3.649-6.256c0.583-0.29,1.235-0.442,1.855-0.658
		C40.821,5.71,56.907,5.71,72.994,5.71z"/>
	<path fill-rule="evenodd" clip-rule="evenodd" fill="#00ACD1" d="M79.883,66.225c-0.464-0.885-0.472-1.754-0.003-2.641
		c0.563-1.068,1.122-2.141,1.656-3.223c0.739-1.506,0.294-2.854-1.194-3.631c-1.072-0.559-2.16-1.086-3.239-1.627
		c-0.891-0.445-1.402-1.15-1.534-2.148c-0.154-1.17-0.335-2.336-0.521-3.501c-0.27-1.672-1.485-2.555-3.145-2.285
		c-1.051,0.17-2.105,0.332-3.149,0.533c-1.226,0.238-2.262,0.002-3.119-0.975c-0.666-0.76-1.405-1.447-2.116-2.163
		c-1.442-1.451-2.793-1.442-4.251,0.026c-0.692,0.695-1.417,1.36-2.056,2.1c-0.875,1.01-1.933,1.257-3.193,1.01
		c-1.014-0.199-2.04-0.354-3.065-0.51c-1.783-0.27-2.945,0.61-3.205,2.402c-0.161,1.11-0.356,2.218-0.495,3.33
		c-0.135,1.074-0.699,1.793-1.655,2.254c-1.036,0.502-2.066,1.016-3.087,1.545c-1.542,0.797-1.985,2.135-1.216,3.688
		c0.524,1.057,1.067,2.105,1.622,3.146c0.488,0.914,0.478,1.805-0.005,2.719c-0.553,1.041-1.096,2.09-1.617,3.146
		c-0.766,1.549-0.322,2.893,1.216,3.688c1.023,0.531,2.054,1.043,3.089,1.543c0.959,0.461,1.518,1.182,1.653,2.252
		c0.139,1.115,0.334,2.221,0.495,3.334c0.26,1.785,1.437,2.682,3.215,2.416c1.137-0.17,2.277-0.346,3.406-0.572
		c1.031-0.203,1.871,0.082,2.593,0.813c0.687,0.699,1.374,1.396,2.062,2.096c1.792,1.82,2.964,1.828,4.734,0.029
		c0.688-0.699,1.375-1.396,2.06-2.098c0.739-0.754,1.602-1.041,2.669-0.832c1.297,0.258,2.611,0.422,3.721,0.6
		c1.63,0.027,2.619-0.879,2.851-2.42c0.172-1.137,0.36-2.275,0.512-3.414c0.132-0.998,0.634-1.703,1.532-2.148
		c1.058-0.523,2.114-1.045,3.161-1.586c1.592-0.818,2.03-2.152,1.238-3.748C80.976,68.316,80.431,67.27,79.883,66.225z
		 M61.387,79.773c-8.45-0.014-15.271-6.865-15.228-15.299c0.041-8.414,6.854-15.199,15.253-15.189
		c8.434,0.01,15.278,6.886,15.234,15.306C76.604,73.01,69.79,79.787,61.387,79.773z"/>
	<path fill-rule="evenodd" clip-rule="evenodd" fill="#00ACD1" d="M48.854,20.575c5.418,0,10.836-0.025,16.254,0.033
		c0.649,0.007,1.399,0.333,1.916,0.746c0.601,0.481,0.763,1.268,0.457,2.057c-0.317,0.818-0.911,1.308-1.771,1.467
		c-0.196,0.036-0.402,0.025-0.604,0.025c-10.865,0.001-21.73,0.002-32.596-0.001c-1.331,0-2.29-0.755-2.423-1.867
		c-0.163-1.357,0.811-2.446,2.251-2.454c3.199-0.017,6.398-0.005,9.597-0.006C44.243,20.575,46.548,20.575,48.854,20.575z"/>
	<path fill-rule="evenodd" clip-rule="evenodd" fill="#00ACD1" d="M48.87,35.992c-5.475,0-10.95,0.003-16.424-0.003
		c-1.23-0.001-2.168-0.716-2.346-1.749c-0.217-1.257,0.674-2.422,1.969-2.557c0.286-0.03,0.576-0.016,0.864-0.016
		c10.604-0.001,21.208-0.001,31.813,0c0.201,0,0.402-0.005,0.604,0.002c1.263,0.051,2.256,0.996,2.265,2.153
		c0.011,1.207-0.984,2.163-2.318,2.165C59.82,35.998,54.345,35.992,48.87,35.992z"/>
	<path fill-rule="evenodd" clip-rule="evenodd" fill="#00ACD1" d="M66.618,84.605c0.439-0.727,1.016-1.008,1.882-0.813
		c1.093,0.242,2.208,0.391,3.316,0.559c2.282,0.342,4.325-1.074,4.806-3.34c0.165-0.781,0.27-1.576,0.418-2.461
		c0.222,0.178,0.403,0.299,0.555,0.451c2.079,2.072,4.151,4.154,6.229,6.229c0.466,0.463,0.861,0.941,0.626,1.666
		c-0.231,0.713-0.806,0.896-1.465,1.008c-1.134,0.193-2.255,0.463-3.392,0.631c-0.526,0.076-0.718,0.293-0.796,0.801
		c-0.188,1.221-0.413,2.439-0.672,3.646c-0.29,1.344-1.47,1.719-2.443,0.754c-2.988-2.955-5.951-5.938-8.921-8.912
		C66.704,84.768,66.67,84.686,66.618,84.605z"/>
	<path fill-rule="evenodd" clip-rule="evenodd" fill="#00ACD1" d="M56.229,84.67c-3.069,3.064-6.11,6.127-9.189,9.152
		c-0.871,0.857-2.015,0.484-2.296-0.721c-0.287-1.23-0.503-2.479-0.713-3.725c-0.087-0.518-0.267-0.777-0.846-0.855
		c-1.223-0.166-2.437-0.416-3.646-0.674c-1.286-0.273-1.674-1.459-0.754-2.396c2.196-2.242,4.428-4.447,6.648-6.664
		c0.075-0.074,0.176-0.123,0.333-0.229c0.145,0.854,0.249,1.641,0.415,2.414c0.5,2.324,2.529,3.727,4.859,3.373
		c1.053-0.16,2.117-0.277,3.148-0.523C55.063,83.613,55.707,83.781,56.229,84.67z"/>
	<path fill-rule="evenodd" clip-rule="evenodd" fill="#00ACD1" d="M74.427,64.525c-0.014,7.211-5.835,13.014-13.038,13
		c-7.205-0.012-13.021-5.838-13.005-13.031c0.015-7.201,5.853-13.027,13.036-13.01C68.625,51.504,74.443,57.338,74.427,64.525z"/>
</g>
</svg>
