<svg xmlns="http://www.w3.org/2000/svg" viewBox="0 0 128 128" width="64px" height="64px"><path fill="#8CCFB9" d="M64.4 9.899999999999999A53.5 53.5 0 1 0 64.4 116.9A53.5 53.5 0 1 0 64.4 9.899999999999999Z"/><path fill="#FFF" d="M64.4 27.699999999999996A35.7 35.7 0 1 0 64.4 99.1A35.7 35.7 0 1 0 64.4 27.699999999999996Z"/><path fill="#71c2ff" d="M64.4 45.599999999999994A17.8 17.8 0 1 0 64.4 81.2A17.8 17.8 0 1 0 64.4 45.599999999999994Z"/><path fill="#464C55" d="M64.1,120.4C33,120.4,7.6,95.1,7.6,63.9S33,7.4,64.1,7.4s56.5,25.4,56.5,56.5C120.7,95.1,95.3,120.4,64.1,120.4z M64.1,13.4c-27.9,0-50.5,22.7-50.5,50.5s22.7,50.5,50.5,50.5s50.5-22.7,50.5-50.5S92,13.4,64.1,13.4z"/><path fill="#F7F7FB" d="M104.4 17.4L94.6 27 95.3 32.9 101.2 33.6 111.1 23.6 105 22.9z"/><path fill="#464C55" d="M113.7,23.2c-0.4-1.1-1.4-1.9-2.5-2l-3.5-0.4l-0.4-3.5c-0.1-1.1-0.9-2.1-2-2.5c-1.1-0.4-2.3-0.1-3.1,0.7l-9.9,9.8c-0.7,0.7-1,1.6-0.9,2.5l0.5,4.4L62,61.8c-1.2,1.1-1.2,3,0,4.2c0.6,0.6,1.3,0.9,2.1,0.9c0.8,0,1.6-0.3,2.1-0.9l29.9-29.6l4.4,0.6c0.1,0,0.3,0,0.4,0c0.8,0,1.5-0.3,2.2-0.9l9.9-9.8C113.8,25.5,114.1,24.3,113.7,23.2z M99.9,30.8l-2.1-0.3l-0.2-2l4.4-4.4c0.2,1.1,1.1,2.1,2.3,2.3L99.9,30.8z"/></svg>