<svg xmlns="http://www.w3.org/2000/svg" viewBox="0 0 128 128" width="64px" height="64px"><path fill="#fff" d="M120.4,43.1c-2-3.9-2.5-4.4-5.4-7.8C98.6,15.8,66.7,8.2,40,18.8c-28.9,11.5-41.9,40-29.5,64.6c9.5,18.8,31,29.7,54,30.2c13.9,0.3,25.2-11,25.2-24.9v-10c0-5.5,4.5-10,10-10h6.2c2.8,0,5.3-1.1,7.8-2.6C121.6,61.2,124.3,51.2,120.4,43.1z M69.1,97.6c-5.8,3.7-13.6,1.9-17.2-3.9c-3.7-5.8-1.9-13.6,3.9-17.2c5.8-3.7,13.6-1.9,17.2,3.9C76.7,86.2,74.9,93.9,69.1,97.6z"/><path fill="#444b54" d="M62.5,102.5c-1.2,0-2.3-0.1-3.5-0.4c-4-0.9-7.5-3.4-9.7-6.9C44.8,88,47,78.4,54.2,73.9c7.2-4.5,16.8-2.3,21.4,4.9c4.5,7.2,2.3,16.8-4.9,21.4h0C68.2,101.7,65.4,102.5,62.5,102.5z M62.4,77.5c-1.7,0-3.5,0.5-5,1.4c-4.4,2.8-5.8,8.7-3,13.1c1.3,2.1,3.5,3.6,5.9,4.2c2.5,0.6,5,0.1,7.2-1.2c0,0,0,0,0,0c4.4-2.8,5.8-8.7,3-13.1C68.7,79.1,65.6,77.5,62.4,77.5z"/><path fill="#444b54" d="M64.6,116.6c-25.4,0-46.6-11.9-56.7-31.8C2,73.1,1.2,60,5.8,47.9c5.3-14,17.4-25.6,33.1-31.8c27.2-10.8,60.9-3.4,78.4,17.3l0.9,1.1c2.2,2.5,3,3.5,4.9,7.3c4.6,9.7,1.3,21.2-7.8,26.9c-2.3,1.4-5.4,3.1-9.3,3.1h-6.2c-2.7,0-5.3,1.6-6.4,4.1c-0.7,1.5-2.5,2.2-4,1.5c-1.5-0.7-2.2-2.5-1.5-4c2.1-4.6,6.8-7.6,11.9-7.6h6.2c1.8,0,3.7-0.7,6.2-2.2c6.5-4.1,8.9-12.3,5.6-19.2c-1.6-3.1-2-3.6-4-6l-0.9-1.1C96.8,18.4,66.1,11.7,41.1,21.6c-14.2,5.6-25,16-29.7,28.4c-4,10.5-3.3,21.9,1.8,32.1c9,17.9,28.2,28.5,51.4,28.5c0,0,0,0,0,0c10.9,0,20.2-7.7,21.9-18.2c0.3-1.6,1.8-2.7,3.5-2.5c1.6,0.3,2.7,1.8,2.5,3.5C90.2,106.8,78.5,116.6,64.6,116.6C64.6,116.6,64.6,116.6,64.6,116.6z"/><path fill="#adf9d2" d="M74.4 23.2A11.3 11.3 0 1 0 74.4 45.8A11.3 11.3 0 1 0 74.4 23.2Z" transform="rotate(-32.106 74.421 34.523)"/><path fill="#adf9d2" d="M99.4 36.2A11.3 11.3 0 1 0 99.4 58.8A11.3 11.3 0 1 0 99.4 36.2Z" transform="rotate(-32.106 99.419 47.522)"/><path fill="#adf9d2" d="M46.3 27.599999999999998A11.3 11.3 0 1 0 46.3 50.2A11.3 11.3 0 1 0 46.3 27.599999999999998Z" transform="rotate(-32.106 46.323 38.946)"/><path fill="#adf9d2" d="M27.4 49.7A11.3 11.3 0 1 0 27.4 72.3A11.3 11.3 0 1 0 27.4 49.7Z" transform="rotate(-32.106 27.44 61.004)"/></svg>