<svg fill="#ffffff" xmlns="http://www.w3.org/2000/svg" viewBox="0 0 32 32" width="64px" height="64px"><path d="M 13.5 5 L 13.1875 5.40625 L 12 7 L 11 7 L 11 6 L 5 6 L 5 7 L 3 7 L 3 26 L 29 26 L 29 7 L 24 7 L 22.8125 5.40625 L 22.5 5 Z M 14.5 7 L 21.5 7 L 22.6875 8.59375 L 23 9 L 27 9 L 27 24 L 5 24 L 5 9 L 13 9 L 13.3125 8.59375 Z M 8 10 C 7.449219 10 7 10.449219 7 11 C 7 11.550781 7.449219 12 8 12 C 8.550781 12 9 11.550781 9 11 C 9 10.449219 8.550781 10 8 10 Z M 18 10 C 14.699219 10 12 12.699219 12 16 C 12 19.300781 14.699219 22 18 22 C 21.300781 22 24 19.300781 24 16 C 24 12.699219 21.300781 10 18 10 Z M 18 12 C 20.222656 12 22 13.777344 22 16 C 22 18.222656 20.222656 20 18 20 C 15.777344 20 14 18.222656 14 16 C 14 13.777344 15.777344 12 18 12 Z"/></svg>