<svg fill="#ffffff" xmlns="http://www.w3.org/2000/svg" viewBox="0 0 32 32" width="56px" height="56px"><path d="M 4 6 L 4 19.949219 L 2 19.945312 L 2 22 C 2 24.224563 3.8504812 26 6.0546875 26 L 25.945312 26 C 28.14952 26 30 24.224563 30 22 L 30 20.001953 L 28 19.998047 L 28 6 L 4 6 z M 6 8 L 26 8 L 26 19.994141 L 20.001953 19.982422 L 19.998047 21.982422 L 28 21.998047 L 28 22 C 28 23.133437 27.101107 24 25.945312 24 L 6.0546875 24 C 4.8988938 24 4 23.133437 4 22 L 4 21.949219 L 11.998047 21.966797 L 12.001953 19.966797 L 6 19.953125 L 6 8 z M 14.001953 19.970703 L 13.998047 21.970703 L 17.998047 21.978516 L 18.001953 19.978516 L 14.001953 19.970703 z"/></svg>