<svg fill="#ffffff" xmlns="http://www.w3.org/2000/svg" viewBox="0 0 32 32" width="64px" height="64px"><path d="M 9.5 4 C 7.5788117 4 6 5.5788117 6 7.5 C 6 9.4211883 7.5788117 11 9.5 11 C 11.421188 11 13 9.4211883 13 7.5 C 13 5.5788117 11.421188 4 9.5 4 z M 9.5 6 C 10.340812 6 11 6.6591883 11 7.5 C 11 8.3408117 10.340812 9 9.5 9 C 8.6591883 9 8 8.3408117 8 7.5 C 8 6.6591883 8.6591883 6 9.5 6 z M 17 10 L 17 12 L 19 12 L 19 10 L 17 10 z M 21 10 L 21 12 L 27 12 L 27 10 L 21 10 z M 9 12 C 6.8026661 12 5 13.802666 5 16 L 5 21.25 L 7 22.25 L 7 28 L 9 28 L 9 21.013672 L 7 20.013672 L 7 16 C 7 14.883334 7.8833339 14 9 14 L 11.697266 14 L 14.697266 16 L 19 16 L 19 14 L 15.302734 14 L 12.300781 12 L 9 12 z M 21 14 L 21 16 L 27 16 L 27 14 L 21 14 z M 17 18 L 17 20 L 19 20 L 19 18 L 17 18 z M 21 18 L 21 20 L 27 20 L 27 18 L 21 18 z M 11 21 L 11 28 L 13 28 L 13 21 L 11 21 z M 17 22 L 17 24 L 19 24 L 19 22 L 17 22 z M 21 22 L 21 24 L 27 24 L 27 22 L 21 22 z M 17 26 L 17 28 L 19 28 L 19 26 L 17 26 z M 21 26 L 21 28 L 27 28 L 27 26 L 21 26 z"/></svg>