<svg xmlns="http://www.w3.org/2000/svg" viewBox="0 0 48 48" width="96px" height="96px"><path fill="#388e3c" d="M37.4,41H10.6c-1,0-1.8-0.7-2-1.6L5,21h38l-3.7,18.4C39.1,40.3,38.3,41,37.4,41z"/><path fill="#2e7d32" d="M25.4,5.6c-0.8-0.8-2-0.8-2.8,0l-12,12c-0.8,0.8-0.8,2,0,2.8C11,20.8,11.5,21,12,21s1-0.2,1.4-0.6 l12-12C26.2,7.6,26.2,6.4,25.4,5.6z"/><path fill="#1b5e20" d="M37.4,17.6l-12-12c-0.8-0.8-2-0.8-2.8,0s-0.8,2,0,2.8l12,12C35,20.8,35.5,21,36,21s1-0.2,1.4-0.6 C38.2,19.6,38.2,18.4,37.4,17.6z"/><path fill="#4caf50" d="M43,23H5c-1.1,0-2-0.9-2-2v-2c0-1.1,0.9-2,2-2h38c1.1,0,2,0.9,2,2v2C45,22.1,44.1,23,43,23z"/><path fill="#1b5e20" d="M25 25h-2c0 0 0 10.8 0 11 0 .6.4 1 1 1s1-.4 1-1C25 35.8 25 25 25 25zM29 25h-2c0 0 0 10.8 0 11 0 .6.4 1 1 1s1-.4 1-1C29 35.8 29 25 29 25zM17 25h-2c0 0 0 10.8 0 11 0 .6.4 1 1 1s1-.4 1-1C17 35.8 17 25 17 25zM21 25h-2c0 0 0 10.8 0 11 0 .6.4 1 1 1s1-.4 1-1C21 35.8 21 25 21 25z"/><path fill="#2e7d32" d="M34.414,26.588c-0.383-0.383-0.894-0.586-1.415-0.586c-0.258,0-0.517,0.05-0.765,0.152 C31.487,26.464,31,27.193,31,28.002V41h6.4c0.9,0,1.7-0.7,1.9-1.6l1.327-6.599L34.414,26.588z"/><path fill="#bdbdbd" d="M36.793 33.163H39.811V48.004H36.793z" transform="rotate(-23.132 38.3 40.586)"/><path fill="#bdbdbd" d="M33 28.002L33 45.002 38 40.002 45 40.002z"/><path fill="#1b5e20" d="M33,25h-2c0,0,0,10.8,0,11c0,0.6,0.4,1,1,1c0.6,0,1-0.4,1-1C33,35.8,33,25,33,25z"/></svg>