<svg fill="#fb8c00" xmlns="http://www.w3.org/2000/svg" viewBox="0 0 32 32" width="64px" height="64px"><path d="M 22 3 C 18.429688 3 15.46875 5.71875 15.0625 9.1875 C 14.003906 8.429688 12.75 8 11.5 8 C 10 8 8.5 8.585938 7.5 9.6875 L 4.6875 12.5 C 2.488281 14.699219 2.488281 18.292969 4.6875 20.59375 L 5.25 21.15625 L 4.28125 22.09375 L 4.1875 22.1875 C 2.621094 23.753906 2.617188 26.320313 4.21875 27.8125 C 5.78125 29.355469 8.328125 29.394531 9.8125 27.8125 C 9.824219 27.800781 9.832031 27.792969 9.84375 27.78125 L 12.875 24.75 C 12.949219 24.699219 13.023438 24.652344 13.09375 24.59375 L 13.1875 24.59375 C 14.386719 24.59375 15.492188 23.992188 16.09375 23.09375 C 16.992188 22.894531 17.8125 22.394531 18.3125 21.59375 C 19.914063 21.292969 21.09375 19.886719 21.09375 18.1875 C 21.09375 17.71875 20.980469 17.28125 20.78125 16.84375 C 21.140625 16.910156 21.484375 17 21.90625 17 C 25.75 17 28.90625 13.84375 28.90625 10 C 28.90625 8.867188 28.675781 7.765625 28.0625 6.78125 L 27.375 5.71875 L 22.71875 10.375 L 21.375 8.9375 L 26.15625 4.15625 L 24.78125 3.59375 C 23.976563 3.25 23.046875 3 22 3 Z M 22 5 C 22.140625 5 22.238281 5.082031 22.375 5.09375 L 19.28125 8.1875 L 18.625 8.875 L 19.28125 9.59375 L 21.96875 12.46875 L 22.6875 13.25 L 23.40625 12.5 L 26.6875 9.21875 C 26.734375 9.492188 26.90625 9.683594 26.90625 10 C 26.90625 12.753906 24.660156 15 21.90625 15 C 21.539063 15 21.09375 14.914063 20.59375 14.8125 L 20.0625 14.71875 L 19.6875 15.09375 L 19.5625 15.25 L 16.8125 12.5 L 17.5 11.8125 L 17.21875 11.46875 L 17.15625 11.25 C 17.074219 10.925781 17 10.367188 17 10 C 17 7.246094 19.246094 5 22 5 Z M 11.5 10 C 12.5 10 13.511719 10.386719 14.3125 11.1875 L 14.6875 11.6875 L 13.90625 12.5 L 18.40625 17 C 18.804688 17.199219 19 17.6875 19 18.1875 C 19 18.988281 18.300781 19.6875 17.5 19.6875 C 17.199219 19.6875 16.988281 19.601563 16.6875 19.5 L 16.6875 19.6875 C 16.6875 20.488281 15.988281 21.1875 15.1875 21.1875 C 14.886719 21.1875 14.707031 21.101563 14.40625 21 L 14.40625 21.1875 C 14.40625 21.988281 13.707031 22.6875 12.90625 22.6875 C 12.605469 22.6875 12.292969 22.601563 12.09375 22.5 C 12.042969 22.648438 11.96875 22.785156 11.875 22.90625 C 11.78125 23.027344 11.6875 23.132813 11.5625 23.21875 C 11.3125 23.394531 10.988281 23.5 10.6875 23.5 C 10.1875 23.5 9.800781 23.304688 9.5 22.90625 L 5.90625 19.3125 C 4.507813 17.914063 4.507813 15.492188 5.90625 14.09375 L 8.6875 11.3125 C 9.585938 10.414063 10.601563 10 11.5 10 Z M 6.65625 22.5625 L 8.3125 24.1875 C 8.703125 24.636719 9.15625 24.960938 9.65625 25.15625 L 8.40625 26.40625 L 8.375 26.40625 L 8.375 26.4375 C 7.664063 27.214844 6.421875 27.234375 5.59375 26.40625 L 5.59375 26.375 L 5.5625 26.375 C 4.785156 25.664063 4.765625 24.421875 5.59375 23.59375 Z"/></svg>