<svg fill="#fb8c00" xmlns="http://www.w3.org/2000/svg" viewBox="0 0 32 32" width="64px" height="64px"><path d="M 7 4 L 7 6 L 10.585938 6 L 4.2929688 12.292969 L 5.7070312 13.707031 L 12 7.4140625 L 12 11 L 14 11 L 14 4 L 7 4 z M 23 4 C 21.35503 4 20 5.3550302 20 7 C 20 8.6449698 21.35503 10 23 10 C 24.64497 10 26 8.6449698 26 7 C 26 5.3550302 24.64497 4 23 4 z M 23 6 C 23.56503 6 24 6.4349698 24 7 C 24 7.5650302 23.56503 8 23 8 C 22.43497 8 22 7.5650302 22 7 C 22 6.4349698 22.43497 6 23 6 z M 22 11 C 19.794 11 18 12.794 18 15 L 18 20.248047 L 20 21.248047 L 20 28 L 22 28 L 22 20.013672 L 20 19.013672 L 20 15 C 20 13.897 20.897 13 22 13 L 24 13 C 25.103 13 26 13.897 26 15 L 26 19.013672 L 24 20.013672 L 24 28 L 26 28 L 26 21.248047 L 28 20.248047 L 28 15 C 28 12.794 26.206 11 24 11 L 22 11 z M 14 16 L 14 28 L 16 28 L 16 16 L 14 16 z M 10 20 L 10 28 L 12 28 L 12 20 L 10 20 z M 6 24 L 6 28 L 8 28 L 8 24 L 6 24 z"/></svg>