<?xml version="1.0" encoding="utf-8"?>
<!-- Generator: Adobe Illustrator 24.2.0, SVG Export Plug-In . SVG Version: 6.00 Build 0)  -->
<svg version="1.1" id="Layer_1" xmlns="http://www.w3.org/2000/svg" xmlns:xlink="http://www.w3.org/1999/xlink" x="0px" y="0px"
	 viewBox="0 0 165 110" style="enable-background:new 0 0 165 110;" xml:space="preserve">
<style type="text/css">
	.st0{opacity:0.5;}
	.st1{fill:#FFFFFF;}
</style>
<g class="st0">
	<g>
		<path class="st1" d="M39.5,72.2c-0.2-0.2-0.5-0.3-0.9-0.3c-0.2,0-0.7,0-0.9,0v0.6c0.2,0,0.7,0,0.9,0c0.2,0,0.3,0,0.4,0.1
			c0.1,0.1,0.1,0.3,0.1,0.5h-0.4c-0.2,0-0.6,0-0.9,0.2c-0.2,0.2-0.4,0.5-0.4,0.8c0,0.3,0.1,0.6,0.4,0.7c0.2,0.1,0.4,0.2,0.7,0.2
			c0.2,0,0.5-0.1,0.7-0.2v0.2h0.6v-1.8C39.7,72.9,39.7,72.5,39.5,72.2z M39,74.1c-0.1,0.2-0.3,0.2-0.5,0.2c-0.1,0-0.3,0-0.3-0.1
			C38.1,74.2,38,74.1,38,74c0-0.2,0.1-0.3,0.2-0.3c0.2-0.1,0.3-0.1,0.5-0.1h0.4C39.1,73.8,39.1,74,39,74.1z"/>
		<g>
			<path class="st1" d="M114.8,74.9c-0.2,0-0.5-0.1-0.6-0.2v0.2h-0.6v-4.2h0.6v1.3c0.2-0.2,0.4-0.2,0.6-0.2c0.4,0,0.7,0.1,0.9,0.4
				c0.3,0.3,0.3,0.8,0.3,1.2s0,0.8-0.3,1.2C115.5,74.8,115.2,74.9,114.8,74.9z M114.8,72.4c-0.2,0-0.3,0.1-0.4,0.2
				c-0.2,0.2-0.2,0.5-0.2,0.8c0,0.3,0,0.6,0.2,0.8c0.1,0.1,0.3,0.2,0.4,0.2s0.3-0.1,0.4-0.2c0.2-0.2,0.2-0.5,0.2-0.8
				c0-0.3,0-0.6-0.2-0.8C115.1,72.5,115,72.4,114.8,72.4z"/>
			<path class="st1" d="M103.3,74.9v-1.6c0-0.4,0-0.6-0.2-0.7c-0.1-0.1-0.2-0.1-0.4-0.1c-0.2,0-0.3,0.1-0.4,0.1
				c-0.2,0.1-0.2,0.4-0.2,0.7v1.6h-0.6v-4.2h0.6v1.3c0.2-0.1,0.4-0.2,0.6-0.2c0.5,0,0.7,0.2,0.8,0.3c0.3,0.3,0.3,0.7,0.3,1.1v1.6
				H103.3z"/>
			<rect x="91.4" y="70.8" class="st1" width="0.6" height="4.2"/>
			<path class="st1" d="M121.7,73.9c0,0.1,0,0.2-0.1,0.3c-0.1,0.2-0.3,0.2-0.5,0.2c-0.2,0-0.4-0.1-0.5-0.2c-0.1-0.2-0.2-0.4-0.2-0.6
				h1.8v-0.2c0-0.4,0-0.8-0.3-1.2c-0.2-0.2-0.5-0.4-0.9-0.4c-0.4,0-0.7,0.1-0.9,0.4c-0.3,0.3-0.3,0.8-0.3,1.2c0,0.4,0,0.8,0.3,1.2
				c0.2,0.2,0.5,0.4,0.9,0.4v0c0.4,0,0.8-0.2,1-0.5c0.1-0.2,0.1-0.3,0.2-0.5H121.7z M120.6,72.6c0.1-0.1,0.3-0.2,0.5-0.2
				c0.2,0,0.4,0.1,0.5,0.2c0.1,0.1,0.1,0.3,0.1,0.5h-1.2C120.5,72.9,120.5,72.7,120.6,72.6z"/>
			<path class="st1" d="M127.6,74.4c0,0-0.4,0-0.5,0c-0.1,0-0.1,0-0.2-0.1c0-0.1-0.1-0.1-0.1-0.5v-1.4h0.7v-0.5h-0.7v-1.1h-0.6v1.1
				h-0.5v0.5h0.5v1.5c0,0.3,0,0.6,0.2,0.8c0.1,0.2,0.4,0.3,0.6,0.3c0.2,0,0.5,0,0.5,0V74.4z"/>
			<path class="st1" d="M88,72.2c-0.2-0.2-0.5-0.3-0.9-0.3c-0.2,0-0.7,0-0.9,0v0.6c0.2,0,0.7,0,0.9,0c0.2,0,0.3,0,0.4,0.1
				c0.1,0.1,0.1,0.3,0.1,0.5h-0.4c-0.2,0-0.6,0-0.9,0.2C86.1,73.4,86,73.7,86,74c0,0.3,0.1,0.6,0.4,0.7c0.2,0.1,0.4,0.2,0.7,0.2
				c0.2,0,0.5-0.1,0.7-0.2v0.2h0.6v-1.8C88.3,72.9,88.3,72.5,88,72.2z M87.6,74.1c-0.1,0.2-0.3,0.2-0.5,0.2c-0.1,0-0.3,0-0.3-0.1
				c-0.1-0.1-0.2-0.2-0.2-0.3c0-0.2,0.1-0.3,0.2-0.3c0.2-0.1,0.3-0.1,0.5-0.1h0.4C87.7,73.8,87.7,74,87.6,74.1z"/>
			<path class="st1" d="M109.6,72.2c-0.2-0.2-0.5-0.3-0.9-0.3c-0.2,0-0.7,0-0.9,0v0.6c0.2,0,0.7,0,0.9,0c0.2,0,0.3,0,0.4,0.1
				c0.1,0.1,0.1,0.3,0.1,0.5h-0.4c-0.2,0-0.6,0-0.9,0.2c-0.2,0.2-0.4,0.5-0.4,0.8c0,0.3,0.1,0.6,0.4,0.7c0.2,0.1,0.4,0.2,0.7,0.2
				c0.2,0,0.5-0.1,0.7-0.2v0.2h0.6v-1.8C109.8,72.9,109.8,72.5,109.6,72.2z M109.1,74.1c-0.1,0.2-0.3,0.2-0.5,0.2
				c-0.1,0-0.3,0-0.3-0.1c-0.1-0.1-0.2-0.2-0.2-0.3c0-0.2,0.1-0.3,0.2-0.3c0.2-0.1,0.3-0.1,0.5-0.1h0.4
				C109.3,73.8,109.3,74,109.1,74.1z"/>
			<path class="st1" d="M97.7,72.4c-0.2-0.3-0.6-0.5-1-0.5c-0.4,0-0.8,0.2-1,0.5c-0.2,0.3-0.2,0.7-0.2,1c0,0,0,0.1,0,0.1h0V76h0.6
				v-1.2c0.2,0.1,0.4,0.2,0.6,0.2c0.4,0,0.8-0.2,1-0.5c0.2-0.3,0.2-0.7,0.2-1C97.9,73.1,97.9,72.7,97.7,72.4z M97.2,74.1
				c-0.1,0.2-0.3,0.3-0.5,0.3c-0.2,0-0.4-0.1-0.5-0.3c-0.1-0.1-0.1-0.4-0.1-0.6v0h0c0,0,0-0.1,0-0.1c0-0.3,0-0.6,0.1-0.7
				c0.1-0.2,0.3-0.3,0.5-0.3c0.2,0,0.4,0.1,0.5,0.3c0.1,0.2,0.1,0.4,0.1,0.7C97.3,73.7,97.3,74,97.2,74.1z"/>
		</g>
		<g>
			<path class="st1" d="M60.1,74.9c-0.4,0-0.7-0.1-0.9-0.4c-0.3-0.3-0.3-0.8-0.3-1.2s0-0.8,0.3-1.2c0.2-0.2,0.5-0.4,0.9-0.4
				c0.2,0,0.5,0.1,0.6,0.2v-1.3h0.6v4.2h-0.6v-0.2C60.6,74.9,60.3,74.9,60.1,74.9z M60.1,72.4c-0.2,0-0.3,0.1-0.4,0.2
				c-0.2,0.2-0.2,0.5-0.2,0.8c0,0.3,0,0.6,0.2,0.8c0.1,0.1,0.3,0.2,0.4,0.2c0.2,0,0.3-0.1,0.4-0.2c0.2-0.2,0.2-0.5,0.2-0.8
				c0-0.3,0-0.6-0.2-0.8C60.5,72.5,60.3,72.4,60.1,72.4z"/>
			<path class="st1" d="M77.3,74.9v-1.6c0-0.4,0-0.6-0.2-0.7c-0.1-0.1-0.2-0.1-0.4-0.1c-0.2,0-0.3,0.1-0.4,0.1
				c-0.2,0.1-0.2,0.4-0.2,0.7v1.6h-0.6c0,0,0-1.2,0-1.7c0-0.9,0.3-1.4,1.2-1.4c0.8,0,1.1,0.4,1.1,1.4v1.7H77.3z"/>
			<path class="st1" d="M54.7,74.9c-0.4,0-0.8-0.2-1-0.5c-0.2-0.3-0.2-0.7-0.2-1c0-0.3,0-0.7,0.2-1c0.2-0.3,0.6-0.5,1-0.5
				c0.4,0,0.8,0.2,1,0.5c0.2,0.3,0.2,0.7,0.2,1c0,0.3,0,0.7-0.2,1C55.5,74.7,55.1,74.9,54.7,74.9z M54.7,72.4
				c-0.2,0-0.4,0.1-0.5,0.3C54,72.8,54,73.1,54,73.4s0,0.6,0.1,0.7c0.1,0.2,0.3,0.3,0.5,0.3c0.2,0,0.4-0.1,0.5-0.3
				c0.1-0.2,0.1-0.4,0.1-0.7s0-0.6-0.1-0.7C55.1,72.5,54.9,72.4,54.7,72.4z"/>
			<path class="st1" d="M66.7,73.9c0,0.1,0,0.2-0.1,0.3c-0.1,0.2-0.3,0.2-0.5,0.2c-0.2,0-0.4-0.1-0.5-0.2c-0.1-0.2-0.2-0.4-0.2-0.6
				h1.8v-0.2c0-0.4,0-0.8-0.3-1.2c-0.2-0.2-0.5-0.4-0.9-0.4c-0.4,0-0.7,0.1-0.9,0.4c-0.3,0.3-0.3,0.8-0.3,1.2c0,0.4,0,0.8,0.3,1.2
				c0.2,0.2,0.5,0.4,0.9,0.4v0c0.4,0,0.8-0.2,1-0.5c0.1-0.2,0.1-0.3,0.2-0.5H66.7z M65.6,72.6c0.1-0.1,0.3-0.2,0.5-0.2
				c0.2,0,0.4,0.1,0.5,0.2c0.1,0.1,0.1,0.3,0.1,0.5h-1.2C65.4,72.9,65.5,72.7,65.6,72.6z"/>
			<path class="st1" d="M50.4,72.1c-0.2-0.2-0.4-0.3-0.7-0.3c-0.3,0-0.6,0.2-0.8,0.4c-0.2-0.2-0.5-0.4-0.8-0.4
				c-0.3,0-0.5,0.1-0.7,0.3C47,72.4,47,72.8,47,73.3v1.6h0.6v-1.6c0-0.4,0-0.6,0.1-0.7c0.1-0.1,0.2-0.2,0.4-0.2
				c0.2,0,0.3,0.1,0.4,0.2c0.1,0.1,0.1,0.3,0.1,0.7v1.6h0.3h0h0.3v-1.6c0-0.4,0-0.6,0.1-0.7c0.1-0.1,0.2-0.2,0.4-0.2
				c0.2,0,0.3,0.1,0.4,0.2c0.1,0.1,0.1,0.3,0.1,0.7v1.6h0.6v-1.6C50.8,72.8,50.8,72.4,50.4,72.1z"/>
			<path class="st1" d="M72.6,71.8l-0.4,0c-0.8,0-1.2,0.4-1.2,1.4c0,0.5,0,1.7,0,1.7h0.6v-1.6c0-0.4,0-0.6,0.2-0.7
				c0.1-0.1,0.2-0.1,0.4-0.1c0,0,0.4,0,0.4,0V71.8z"/>
		</g>
	</g>
	<g>
		<path class="st1" d="M133.7,63.6c-3.4,0-6.4-1.6-8-4.2c-1.5-2.4-1.5-5-1.5-9.6s0-7.2,1.5-9.6c1.6-2.6,4.6-4.2,8-4.2
			c3.4,0,6.4,1.6,8,4.2c1.5,2.4,1.5,5,1.5,9.6s0,7.2-1.5,9.6C140.1,62,137.1,63.6,133.7,63.6z M133.7,40.1c-1.9,0-3.5,0.8-4.4,2.1
			c-0.9,1.5-0.9,3.8-0.9,7.6c0,3.8,0,6.1,0.9,7.6c0.8,1.3,2.4,2.1,4.4,2.1c1.9,0,3.5-0.8,4.4-2.1c0.9-1.5,0.9-3.8,0.9-7.6
			c0-3.8,0-6.1-0.9-7.6C137.2,40.9,135.6,40.1,133.7,40.1z"/>
		<rect x="67.4" y="36.1" class="st1" width="4.2" height="27.1"/>
		<path class="st1" d="M47.2,57.2V36.1h4.2v20c0,1.7,1.4,3,3,3h7.7v4.1h-8.9C49.9,63.2,47.2,60.5,47.2,57.2z"/>
		<polygon class="st1" points="84.8,63.2 84.8,40.2 77.5,40.2 77.5,36.1 96.4,36.1 96.4,40.2 89.1,40.2 89.1,63.2 		"/>
		<path class="st1" d="M109.9,40.2h8.5v-4.1h-9.7c-3.4,0-6.1,2.7-6.1,6.1v5.1h-4.1v4.1h4.1v5.9c0,3.3,2.7,6.1,6.1,6.1h9.7v-4.1h-8.5
			c-1.7,0-3-1.4-3-3v-4.8h11.5v-4.1h-11.5v-4C106.9,41.5,108.3,40.2,109.9,40.2z"/>
		<path class="st1" d="M33.2,40.2h8.5v-4.1H32c-3.4,0-6.1,2.7-6.1,6.1v5.1h-4.1v4.1h4.1v5.9c0,3.3,2.7,6.1,6.1,6.1h9.7v-4.1h-8.5
			c-1.7,0-3-1.4-3-3v-4.8h11.5v-4.1H30.1v-4C30.1,41.5,31.5,40.2,33.2,40.2z"/>
	</g>
</g>
</svg>
