<?xml version="1.0" encoding="utf-8"?>
<!-- Generator: Adobe Illustrator 24.2.0, SVG Export Plug-In . SVG Version: 6.00 Build 0)  -->
<svg version="1.1" id="Layer_1" xmlns="http://www.w3.org/2000/svg" xmlns:xlink="http://www.w3.org/1999/xlink" x="0px" y="0px"
	 viewBox="0 0 165 110" style="enable-background:new 0 0 165 110;" xml:space="preserve">
<style type="text/css">
	.st0{opacity:0.5;fill:#FFFFFF;}
</style>
<path class="st0" d="M55.1,50.1c-0.6,0.6-1.4,0.9-2.3,0.9c-0.9,0-1.7-0.4-2.3-0.9c-0.6-0.6-0.9-1.4-0.9-2.3c0-0.9,0.4-1.7,0.9-2.3
	c0.6-0.6,1.4-0.9,2.3-0.9c0.9,0,1.7,0.4,2.3,0.9c0.6,0.6,0.9,1.4,0.9,2.3c0,0.3,0,0.5-0.1,0.7l-0.1,0.3
	C55.7,49.4,55.4,49.8,55.1,50.1 M88.4,74.3c-1.5-1.5-3.5,0.5-2,2l1.4,1.4c0.6,0.6,1.5,0.6,2,0c0.6-0.6,0.6-1.5,0-2L88.4,74.3z
	 M111.6,50c0,0.9,0.7,1.6,1.6,1.6s1.6-0.7,1.6-1.6s-0.7-1.6-1.6-1.6S111.6,49.1,111.6,50z M54.5,60.1H49h0c-0.8,0-1.4-0.6-1.4-1.4v0
	c0-0.8,0.6-1.4,1.4-1.4h6.5c-0.2-1.2-0.4-2.5-0.3-3.8c-0.7,0.3-1.5,0.5-2.4,0.5c-1.7,0-3.2-0.7-4.3-1.8c-1.1-1.1-1.8-2.6-1.8-4.3
	c0-1.7,0.7-3.2,1.8-4.3c1.1-1.1,2.6-1.8,4.3-1.8c1.7,0,3.2,0.7,4.3,1.8c0.2,0.2,0.5,0.5,0.7,0.8c1.4-2.4,3.3-4.6,5.7-6.4
	c6.2-4.5,15.6-5.7,26.6,0.4c2,1.1,3.4,2.1,4.6,3c1.5,1.1,2.6,1.9,3.9,2.2c2,0.4,1.8,3.5-1,2.7c-1.6-0.5-2.9-1.4-4.6-2.6
	c-1.2-0.8-2.5-1.8-4.3-2.8c-9.9-5.5-18.1-4.5-23.5-0.6c-3.1,2.3-5.4,5.5-6.4,9l-0.1,0.4c-0.9,3.3-0.8,6.8,0.7,9.9
	c2.1,4.5,7.5,8.3,15.7,8.9l0,0h0c0.2,0,0.4,0.1,0.6,0.2c1.5,0.6,1.1,2.8-0.6,2.7H52.1c-0.8,0-1.4-0.6-1.4-1.4v0
	c0-0.8,0.6-1.4,1.4-1.4h9.5c0.7,0,1.3-0.7,1.3-1.4v0c0-0.8-0.6-1.4-1.4-1.4h-1.2l0,0c-0.1,0-0.1,0-0.2,0h-6.3
	c-0.8,0-1.4-0.6-1.4-1.4v0c0-0.8,0.6-1.4,1.4-1.4h2.2l0,0c0.7,0,1.3-0.7,1.3-1.4v0c0-0.8-0.6-1.4-1.4-1.4H54.5L54.5,60.1z
	 M50.3,64.3L50.3,64.3c0,0.8-0.6,1.4-1.4,1.4h-5c-0.8,0-1.4-0.6-1.4-1.4v0c0-0.8,0.6-1.4,1.4-1.4h5C49.7,62.9,50.3,63.5,50.3,64.3z
	 M82.3,71c0.4-2.1,0.5-4,0.3-5.7c-0.3-2.7-1.2-5-2.6-6.6c-1.4-1.7-3.4-2.8-5.6-3.1c-1.9-0.3-4-0.3-6.2,0.6c-2.4,1-1.4,3.6,1,2.7
	c1.7-0.7,3.3-0.7,4.7-0.5c1.6,0.3,2.9,1,3.9,2.2c1,1.2,1.7,2.9,1.9,5c0.3,3.2-0.8,7.1-2.6,12c-1,2.8,1.4,3.5,2.7,1.3
	c1.7-3.1,4.1-5.7,6.4-7.6c2-1.8,4.1-3.1,6.1-3.9c2-0.8,4.6-1.2,6.7-1.6c4.6-0.8,6.7-1.2,10.7-4.2c1.5-1.1,0.9-0.8,2.6-0.3
	c3.5,1.1,6,0.9,7.7-0.1c1.3-0.8,2-2,2.3-3.5c0.3-1.3,0.2-2.9-0.1-4.4c-0.8-3.7-3.3-7.8-6.6-10.5c-3-2.5-2.1-0.5-3.2-3.4
	c-1.4-3.7-4.1-8.8-11.1-9.4l-2-0.2l0.6,2c0.5,1.9,0.5,3.6,0.6,5.1c0,3.6,0,6.5,4.7,9.3c2.3,1.3,3.4-1.3,1.7-2.3
	c-3.6-2.1-3.5-4.3-3.6-7c0-1.1,0-2.3-0.2-3.7c4.1,1.2,5.8,4.9,6.9,7.6c0.7,1.7,0.4,2.1,2.3,3.1c3.6,2,6.4,6.3,7.2,10
	c0.3,1.2,0.3,2.3,0.1,3.2c-0.2,0.8-0.5,1.3-1.1,1.7c-1.3,0.8-3.6,0.7-7.4-1c-0.9-0.4-0.7-0.5-1.5,0.2c-4.6,3.8-6.4,4.1-11.2,4.9
	c-2.4,0.4-5,0.8-7.3,1.8c-2.2,0.9-4.6,2.4-6.8,4.3C83.7,69.7,83,70.3,82.3,71z"/>
</svg>
