<?xml version="1.0" encoding="utf-8"?>
<!-- Generator: Adobe Illustrator 24.2.0, SVG Export Plug-In . SVG Version: 6.00 Build 0)  -->
<svg version="1.1" id="Layer_1" xmlns="http://www.w3.org/2000/svg" xmlns:xlink="http://www.w3.org/1999/xlink" x="0px" y="0px"
	 viewBox="0 0 165 110" style="enable-background:new 0 0 165 110;" xml:space="preserve">
<style type="text/css">
	.st0{opacity:0.5;fill:#FFFFFF;}
</style>
<path class="st0" d="M82.5,56.3L70.9,44.7c-0.4-0.4-0.9-0.6-1.5-0.6c-0.5,0-1.1,0.2-1.5,0.6l0,0c-0.4,0.4-0.6,0.9-0.6,1.5
	c0,0.5,0.2,1.1,0.6,1.5c0.4,0.4,0.9,0.6,1.5,0.6c0.5,0,1.1-0.2,1.5-0.6l2,2c-1,1-2.2,1.5-3.5,1.5c-1.3,0-2.5-0.5-3.5-1.5
	c-1-1-1.5-2.2-1.5-3.5c0-1.3,0.5-2.5,1.5-3.5h0c1-1,2.2-1.5,3.5-1.5c1.3,0,2.5,0.5,3.5,1.5l1.5,1.5l0,0L86,55.7c2.6,2.6,6.1,4,9.6,4
	c3.5,0,6.9-1.3,9.6-4c2.6-2.6,4-6.1,4-9.6c0-3.5-1.3-6.9-4-9.6c-2.6-2.6-6.1-4-9.6-4c-3.5,0-6.9,1.3-9.6,4l-2-2
	c3.2-3.2,7.4-4.8,11.6-4.8c4.2,0,8.4,1.6,11.6,4.8c3.2,3.2,4.8,7.4,4.8,11.6c0,4.2-1.6,8.4-4.8,11.6c-3.2,3.2-7.4,4.8-11.6,4.8
	c-4.2,0-8.4-1.6-11.6-4.8L82.5,56.3L82.5,56.3L82.5,56.3z M78.4,40l11.6,11.6c1.5,1.5,3.5,2.3,5.5,2.3c2,0,4-0.8,5.5-2.3
	c1.5-1.5,2.3-3.5,2.3-5.5c0-2-0.8-4-2.3-5.5c-1.5-1.5-3.5-2.3-5.5-2.3s-4,0.8-5.5,2.3l-2-2c2.1-2.1,4.8-3.1,7.6-3.1
	c2.7,0,5.5,1,7.6,3.1c2.1,2.1,3.1,4.8,3.1,7.6c0,2.7-1,5.5-3.1,7.6c-2.1,2.1-4.8,3.1-7.6,3.1c-2.7,0-5.5-1-7.6-3.1l-1.5-1.5l0,0
	L74.9,40.6c-1.5-1.5-3.5-2.3-5.5-2.3c-2,0-4,0.8-5.5,2.3c-1.5,1.5-2.3,3.5-2.3,5.5c0,2,0.8,4,2.3,5.5c1.5,1.5,3.5,2.3,5.5,2.3
	c2,0,4-0.8,5.5-2.3l2,2c-2.1,2.1-4.8,3.1-7.6,3.1c-2.7,0-5.5-1-7.6-3.1c-2.1-2.1-3.1-4.8-3.1-7.6c0-2.7,1-5.5,3.1-7.6
	c2.1-2.1,4.8-3.1,7.6-3.1c2.7,0,5.5,1,7.6,3.1L78.4,40L78.4,40L78.4,40z M82.5,36l11.6,11.6c0.4,0.4,0.9,0.6,1.5,0.6
	c0.5,0,1.1-0.2,1.5-0.6c0.4-0.4,0.6-0.9,0.6-1.5c0-0.5-0.2-1.1-0.6-1.5c-0.4-0.4-0.9-0.6-1.5-0.6c-0.5,0-1.1,0.2-1.5,0.6l-2-2
	c1-1,2.2-1.5,3.5-1.5s2.5,0.5,3.5,1.5c1,1,1.5,2.2,1.5,3.5c0,1.3-0.5,2.5-1.5,3.5c-1,1-2.2,1.5-3.5,1.5c-1.3,0-2.5-0.5-3.5-1.5
	l-1.5-1.5l0,0L79,36.5c-2.6-2.6-6.1-4-9.6-4c-3.5,0-6.9,1.3-9.6,4c-2.6,2.6-4,6.1-4,9.6c0,3.5,1.3,6.9,4,9.6c2.6,2.6,6.1,4,9.6,4
	c3.5,0,6.9-1.3,9.6-4l2,2c-3.2,3.2-7.4,4.8-11.6,4.8c-4.2,0-8.4-1.6-11.6-4.8c-3.2-3.2-4.8-7.4-4.8-11.6c0-4.2,1.6-8.4,4.8-11.6
	c3.2-3.2,7.4-4.8,11.6-4.8c4.2,0,8.4,1.6,11.6,4.8L82.5,36L82.5,36L82.5,36z"/>
<rect x="47.5" y="70.7" class="st0" width="1.7" height="9.6"/>
<polygon class="st0" points="59.7,77.4 54.6,70.7 53.1,70.7 53.1,80.3 54.7,80.3 54.7,73.5 60,80.3 61.4,80.3 61.4,70.7 59.7,70.7 
	59.7,77.4 "/>
<polygon class="st0" points="72.3,70.7 65.2,70.7 65.2,80.3 66.9,80.3 66.9,76.4 71.7,76.4 71.7,74.9 66.9,74.9 66.9,72.2 
	72.3,72.2 72.3,70.7 "/>
<rect x="75.6" y="70.7" class="st0" width="1.7" height="9.6"/>
<polygon class="st0" points="87.9,77.4 82.7,70.7 81.2,70.7 81.2,80.3 82.8,80.3 82.8,73.5 88.1,80.3 89.5,80.3 89.5,70.7 
	87.9,70.7 87.9,77.4 "/>
<rect x="93.4" y="70.7" class="st0" width="1.7" height="9.6"/>
<polygon class="st0" points="103,72.3 106.1,72.3 106.1,70.7 98.3,70.7 98.3,72.3 101.3,72.3 101.3,80.3 103,80.3 103,72.3 "/>
<polygon class="st0" points="113.7,76.5 117.5,70.7 115.6,70.7 112.9,75 110.2,70.7 108.2,70.7 112,76.5 112,80.3 113.7,80.3 
	113.7,76.5 "/>
</svg>
