<?xml version="1.0"?><svg fill="#ffffff" xmlns="http://www.w3.org/2000/svg" viewBox="0 0 128 128" width="64px" height="64px">    <path d="M 64 6 C 32 6 6 32 6 64 C 6 96 32 122 64 122 C 79.5 122 94.100391 115.99961 104.90039 105.09961 L 105 105 L 105 112.40039 C 105 114.10039 106.3 115.40039 108 115.40039 C 109.7 115.40039 111 114.10039 111 112.40039 L 111 98.099609 C 111 96.399609 109.7 95.099609 108 95.099609 L 93.699219 95.099609 C 91.999219 95.099609 90.699219 96.399609 90.699219 98.099609 C 90.699219 99.799609 91.999219 101.09961 93.699219 101.09961 L 100.40039 101.09961 C 90.600391 110.69961 77.7 116 64 116 C 35.3 116 12 92.7 12 64 C 12 35.3 35.3 12 64 12 C 92.7 12 116 35.3 116 64 C 116 65.7 117.3 67 119 67 C 120.7 67 122 65.7 122 64 C 122 32 95.9 6 64 6 z M 51.5 41 C 45.7 41 41 45.7 41 51.5 L 41 58 C 41 59.7 42.3 61 44 61 C 45.7 61 47 59.7 47 58 L 47 51.5 C 47 49 49 47 51.5 47 C 54 47 56 49 56 51.5 C 56 58.9 53.499609 66.299219 49.099609 72.199219 L 41.599609 82.199219 C 40.899609 83.099219 40.800781 84.300781 41.300781 85.300781 C 41.800781 86.300781 42.8 87 44 87 L 59 87 C 60.7 87 62 85.7 62 84 C 62 82.3 60.7 81 59 81 L 50 81 L 53.900391 75.800781 C 59.100391 68.800781 62 60.2 62 51.5 C 62 45.7 57.3 41 51.5 41 z M 81 41 C 78.6 41 76.300391 42.500781 75.400391 44.800781 L 64.199219 73.900391 C 63.799219 74.800391 64 75.899219 64.5 76.699219 C 65 77.499219 66 78 67 78 L 81 78 L 81 84 C 81 85.7 82.3 87 84 87 C 85.7 87 87 85.7 87 84 L 87 47 C 87 43.7 84.3 41 81 41 z M 81 47 L 81 72 L 71.400391 72 L 81 47 z M 116.80078 76.099609 A 3.3 3.3 0 0 0 113.5 79.400391 A 3.3 3.3 0 0 0 116.80078 82.699219 A 3.3 3.3 0 0 0 120.09961 79.400391 A 3.3 3.3 0 0 0 116.80078 76.099609 z"/></svg>