<?xml version="1.0" encoding="utf-8"?>
<!-- Generator: Adobe Illustrator 16.0.0, SVG Export Plug-In . SVG Version: 6.00 Build 0)  -->
<!DOCTYPE svg PUBLIC "-//W3C//DTD SVG 1.1//EN" "http://www.w3.org/Graphics/SVG/1.1/DTD/svg11.dtd">
<svg version="1.1" id="Layer_1" xmlns="http://www.w3.org/2000/svg" xmlns:xlink="http://www.w3.org/1999/xlink" x="0px" y="0px"
	 width="100px" height="100px" viewBox="0 0 100 100" enable-background="new 0 0 100 100" xml:space="preserve">
<path fill-rule="evenodd" clip-rule="evenodd" fill="#00ACD1" d="M60.463,23.592c0.208,2.34,0.408,4.574,0.616,6.931
	c-6.271-3.991-12.44-7.918-18.693-11.898c5.406-5.021,10.776-10.007,16.24-15.08c0.145,1.544,0.276,2.961,0.408,4.377
	c0.048,0.509,0.118,1.019,0.126,1.529c0.006,0.406,0.198,0.5,0.56,0.543c10.623,1.292,19.414,6.048,26.264,14.229
	c6.951,8.301,10.042,17.949,9.254,28.753c-1.316,18.04-14.53,32.868-32.352,36.431c-0.101,0.02-0.202,0.033-0.303,0.051
	c-0.363,0.063-0.726,0.084-0.849-0.365c-0.128-0.469,0.171-0.65,0.565-0.779c3.068-1.012,5.962-2.393,8.598-4.264
	c8.513-6.045,13.373-14.27,14.46-24.654c1.685-16.108-8.735-31.337-24.332-35.67C60.871,23.683,60.715,23.652,60.463,23.592z"/>
<path opacity="0.2" fill-rule="evenodd" clip-rule="evenodd" d="M43.231,17.85c5.939,3.777,11.8,7.509,17.747,11.295
	c0.035,0.383,0.067,0.769,0.103,1.157c-6.271-3.99-12.442-7.918-18.694-11.898"/>
<path opacity="0.2" fill-rule="evenodd" clip-rule="evenodd" d="M86.202,58.621c-1.085,10.383-5.947,18.609-14.459,24.652
	c-0.427,0.303-0.859,0.594-1.3,0.871c0.151-0.102,0.305-0.209,0.454-0.316c8.512-6.045,13.373-14.27,14.46-24.652
	C87.031,43.19,76.779,28.07,61.38,23.608c-0.024-0.263-0.047-0.527-0.071-0.791c0.252,0.06,0.409,0.091,0.563,0.133
	C77.467,27.284,87.889,42.513,86.202,58.621z"/>
<path fill-rule="evenodd" clip-rule="evenodd" fill="#00ACD1" d="M39.729,76.408c-0.208-2.34-0.407-4.576-0.617-6.932
	c6.272,3.992,12.442,7.918,18.695,11.898c-5.407,5.02-10.778,10.006-16.241,15.08c-0.144-1.545-0.278-2.961-0.41-4.377
	c-0.047-0.51-0.118-1.02-0.125-1.529c-0.006-0.406-0.198-0.5-0.56-0.545c-10.623-1.291-19.414-6.047-26.263-14.229
	C7.258,67.475,4.167,57.826,4.956,47.021c1.316-18.039,14.53-32.867,32.351-36.43c0.101-0.02,0.202-0.033,0.303-0.051
	c0.363-0.063,0.726-0.083,0.849,0.366c0.127,0.468-0.171,0.649-0.565,0.779c-3.069,1.011-5.962,2.393-8.598,4.264
	c-8.512,6.045-13.373,14.27-14.459,24.652c-1.685,16.109,8.736,31.337,24.332,35.671C39.32,76.316,39.478,76.348,39.729,76.408z"/>
<path opacity="0.2" fill-rule="evenodd" clip-rule="evenodd" d="M56.961,82.15c-5.938-3.777-11.8-7.51-17.746-11.295
	c-0.035-0.383-0.069-0.768-0.104-1.158c6.271,3.992,12.443,7.92,18.696,11.9"/>
<path opacity="0.2" fill-rule="evenodd" clip-rule="evenodd" d="M13.99,41.378c1.085-10.383,5.948-18.609,14.459-24.653
	c0.426-0.303,0.859-0.593,1.3-0.87c-0.152,0.102-0.305,0.208-0.455,0.315c-8.511,6.046-13.373,14.271-14.459,24.653
	c-1.673,15.985,8.578,31.106,23.978,35.569c0.024,0.262,0.047,0.525,0.072,0.789c-0.252-0.059-0.41-0.09-0.564-0.133
	C22.726,72.715,12.304,57.486,13.99,41.378z"/>
</svg>
