<?xml version="1.0" encoding="utf-8"?>
<!-- Generator: Adobe Illustrator 16.0.0, SVG Export Plug-In . SVG Version: 6.00 Build 0)  -->
<!DOCTYPE svg PUBLIC "-//W3C//DTD SVG 1.1//EN" "http://www.w3.org/Graphics/SVG/1.1/DTD/svg11.dtd">
<svg version="1.1" id="Layer_1" xmlns="http://www.w3.org/2000/svg" xmlns:xlink="http://www.w3.org/1999/xlink" x="0px" y="0px"
	 width="442.898px" height="127.041px" viewBox="0 0 442.898 127.041" enable-background="new 0 0 442.898 127.041"
	 xml:space="preserve">
<path fill="#2196F3" d="M99.679,56.941c0,8.669-6.58,14.589-15.51,14.589c-8.94,0-15.65-5.92-15.65-14.589
	c0-8.68,6.71-14.47,15.65-14.47C93.099,42.471,99.679,48.261,99.679,56.941z"/>
<path fill="#2196F3" d="M124.389,3.791v20.02h-23.79v8.67c-4.86-6.7-12.49-9.86-22.35-9.86c-18.93,0-34.97,13.41-34.97,34.32
	c0,21.03,16.04,34.44,34.97,34.44c9.07,0,16.3-2.761,21.16-8.421v2.371c0,11.18-5.65,17.22-19.06,17.22
	c-8.41,0-18.14-2.89-24.05-7.62l-9.08,17.48c2.37,1.689,5.07,3.149,8.01,4.379h-41.8v-101c0-6.63,5.38-12,12-12H124.389z"/>
<g>
	<path fill="#FFFFFF" d="M174.269,18.561v83.771h21.45V18.561H174.269z"/>
	<path fill="#FFFFFF" d="M240.339,40.121c-19.98,0-34.551,13.1-34.551,31.5c0,18.521,14.57,31.721,34.551,31.721
		c20.209,0,34.539-13.2,34.539-31.721C274.878,53.221,260.548,40.121,240.339,40.121z M240.339,86.301
		c-7.23,0-12.871-5.31-12.871-14.681c0-9.259,5.641-14.449,12.871-14.449c7.34,0,12.869,5.19,12.869,14.449
		C253.208,80.991,247.679,86.301,240.339,86.301z"/>
	<path fill="#FFFFFF" d="M330.239,41.141v7.45c-4.17-5.76-10.72-8.47-19.19-8.47c-16.26,0-30.029,11.52-30.029,29.47
		c0,18.061,13.77,29.58,30.029,29.58c7.79,0,14-2.37,18.17-7.23v2.03c0,9.601-4.85,14.79-16.359,14.79
		c-7.23,0-15.58-2.48-20.66-6.551l-7.79,15.021c7.45,5.31,18.62,8.021,30.36,8.021c22.81,0,35.91-10.95,35.91-34.1V41.141H330.239z
		 M316.128,82.12c-7.68,0-13.439-5.08-13.439-12.529c0-7.45,5.76-12.42,13.439-12.42c7.681,0,13.32,4.97,13.32,12.42
		C329.449,77.04,323.809,82.12,316.128,82.12z"/>
	<path fill="#FFFFFF" d="M395.199,40.121c-19.98,0-34.55,13.1-34.55,31.5c0,18.521,14.569,31.721,34.55,31.721
		c20.21,0,34.55-13.2,34.55-31.721C429.749,53.221,415.409,40.121,395.199,40.121z M395.199,86.301c-7.23,0-12.87-5.31-12.87-14.681
		c0-9.259,5.64-14.449,12.87-14.449c7.34,0,12.87,5.19,12.87,14.449C408.069,80.991,402.539,86.301,395.199,86.301z"/>
</g>
</svg>
