<?xml version="1.0" encoding="utf-8"?>
<!-- Generator: Adobe Illustrator 16.0.0, SVG Export Plug-In . SVG Version: 6.00 Build 0)  -->
<!DOCTYPE svg PUBLIC "-//W3C//DTD SVG 1.1//EN" "http://www.w3.org/Graphics/SVG/1.1/DTD/svg11.dtd">
<svg version="1.1" id="Layer_1" xmlns="http://www.w3.org/2000/svg" xmlns:xlink="http://www.w3.org/1999/xlink" x="0px" y="0px"
	 width="146px" height="39px" viewBox="0 0 146 39" enable-background="new 0 0 146 39" xml:space="preserve">
<g>
	<g>
		<polygon fill="#0A1E29" points="24.182,24.849 23.491,24.849 19.727,31.624 15.894,24.849 15.355,24.849 13.756,24.849 
			19.727,34.958 25.485,24.849 		"/>
		<polygon fill="#0A1E29" points="31.996,9.071 31.964,9.128 33.852,9.128 37.085,3.408 23.527,3.408 21.503,3.408 19.707,6.148 
			17.914,3.408 16.09,3.408 1.416,3.408 4.332,8.568 4.332,8.568 4.651,9.134 5.978,9.134 6.402,9.134 4.155,4.939 4.218,4.939 
			5.076,4.939 17.075,4.939 19.71,8.548 22.204,4.939 34.304,4.939 		"/>
	</g>
	<g>
		<path fill="#0A1E29" d="M8.251,17.084l4.338-5.369H8.837l-3.118,4.09v-4.09H2.512v10.474h3.208v-3.744l3.307,3.744h3.976
			L8.251,17.084z"/>
		<path fill="#0A1E29" d="M34.741,18.544c1.13-0.354,1.715-1.376,1.715-3.018c0-2.507-1.36-3.81-3.951-3.81h-4.981v10.474h3.191
			v-3.159h0.974l1.691,3.159h3.464L34.741,18.544z M32.54,16.574h-1.823v-2.565h1.733c0,0,1.163-0.074,1.261,1.229
			C33.71,15.237,33.801,16.434,32.54,16.574z"/>
		<polygon fill="#0A1E29" points="23.03,11.718 19.709,16.775 16.519,11.718 13.875,11.718 13.875,22.191 16.801,22.191 
			16.801,16.195 19.678,20.498 22.626,16.195 22.626,22.047 22.626,22.191 25.611,22.191 25.611,11.718 		"/>
		<polygon fill="#0A1E29" points="17.385,10.504 19.701,14.178 22.113,10.504 		"/>
	</g>
</g>
<g>
	<path fill="#0A1E29" d="M53.197,17.38l8.448-10.463h-7.304l-6.086,7.97v-7.97h-6.245v20.419h6.245v-7.318l6.449,7.318h7.754
		L53.197,17.38z"/>
	<polygon fill="#0A1E29" points="100.57,6.898 94.102,16.767 87.893,6.898 82.746,6.898 82.746,27.335 88.441,27.335 88.441,15.634 
		94.043,24.032 99.785,15.634 99.785,27.053 99.785,27.335 105.595,27.335 105.595,6.898 	"/>
	<polygon fill="#0A1E29" points="89.597,4.635 94.105,11.798 98.8,4.635 	"/>
	<polygon fill="#0A1E29" points="69.921,11.909 69.921,11.798 78.821,11.798 78.821,6.915 64.428,6.915 64.428,27.335 
		78.821,27.335 78.821,22.538 69.921,22.538 69.921,22.343 69.921,19.606 69.921,19.486 78.821,19.486 78.821,14.851 69.921,14.851 
		69.921,14.613 	"/>
	<polygon fill="#0A1E29" points="114.592,11.909 114.592,11.798 123.495,11.798 123.495,6.915 109.098,6.915 109.098,27.335 
		123.495,27.335 123.495,22.538 114.592,22.538 114.592,22.343 114.592,19.606 114.592,19.486 123.495,19.486 123.495,14.851 
		114.592,14.851 114.592,14.613 	"/>
	<path fill="#0A1E29" d="M141.422,20.22c2.201-0.694,3.347-2.681,3.347-5.883c0-4.883-2.65-7.419-7.693-7.419h-9.711v20.419h6.218
		v-6.16h1.896l3.293,6.16h6.753L141.422,20.22z M136.888,16.323h-3.306v-4.421h0.014v-0.333h3.116c0,0,2.16-0.129,2.332,2.29
		C139.044,13.859,139.219,16.061,136.888,16.323z"/>
</g>
</svg>
