<?xml version="1.0"?><svg fill="#ffffff" xmlns="http://www.w3.org/2000/svg" viewBox="0 0 128 128" width="64px" height="64px">    <path d="M 43.599609 18 C 36.399609 18 30.599609 23.8 30.599609 31 L 30.599609 51 C 30.599609 52.7 31.899609 54 33.599609 54 C 35.299609 54 36.599609 52.7 36.599609 51 L 36.599609 31 C 36.599609 27.1 39.699609 24 43.599609 24 L 104.59961 24 C 108.49961 24 111.59961 27.1 111.59961 31 L 111.59961 56.099609 L 67.400391 83.099609 L 28.599609 58.5 C 27.699609 57.9 26.5 57.900391 25.5 58.400391 C 24.5 58.900391 23.900391 59.9 23.900391 61 L 23.900391 111 C 23.900391 113.6 24.7 116 26 118 L 17.599609 118 C 15.899609 118 14.599609 119.3 14.599609 121 C 14.599609 122.7 15.999219 124 17.699219 124 L 37 124 L 43.300781 124 L 111 124 C 118.2 124 124 118.2 124 111 L 124 61 L 124 60.800781 L 124 60.400391 C 124 60.300391 124.00039 60.199609 123.90039 60.099609 C 123.90039 59.999609 123.80078 59.900781 123.80078 59.800781 C 123.80078 59.700781 123.69961 59.6 123.59961 59.5 C 123.59961 59.4 123.5 59.400781 123.5 59.300781 C 123.4 59.200781 123.30078 59.1 123.30078 59 C 123.30078 58.9 123.19922 58.900781 123.19922 58.800781 C 123.09922 58.700781 123 58.699609 123 58.599609 L 122.80078 58.400391 C 122.70078 58.400391 122.69961 58.300781 122.59961 58.300781 C 122.49961 58.200781 122.40078 58.199609 122.30078 58.099609 C 122.20078 58.099609 122.19961 58.1 122.09961 58 C 121.99961 58 121.89922 57.900391 121.69922 57.900391 L 121.5 57.900391 L 121.09961 57.900391 L 120.90039 57.900391 L 120.5 57.900391 C 120.4 57.900391 120.30078 57.9 120.30078 58 C 120.20078 58 120.1 58.099609 120 58.099609 C 119.9 58.099609 119.79922 58.200781 119.69922 58.300781 C 119.59922 58.300781 119.6 58.400391 119.5 58.400391 L 117.59961 59.599609 L 117.59961 31 C 117.59961 23.8 111.79961 18 104.59961 18 L 43.599609 18 z M 30 66.5 L 68.800781 91.199219 L 47.199219 105.09961 C 45.799219 105.99961 45.400781 107.89922 46.300781 109.19922 C 46.900781 110.09922 47.800781 110.59961 48.800781 110.59961 C 49.400781 110.59961 49.900391 110.39961 50.400391 110.09961 L 118 66.5 L 118 111 C 118 114.9 114.9 118 111 118 L 43.300781 118 L 37 118 C 33.1 118 30 114.9 30 111 L 30 66.5 z M 5.6992188 118.07422 C 4.9242187 118.07422 4.1496094 118.35039 3.5996094 118.90039 C 2.9996094 119.50039 2.6992187 120.2 2.6992188 121 C 2.6992188 121.8 2.9996094 122.59961 3.5996094 123.09961 C 4.0996094 123.69961 4.8992187 124 5.6992188 124 C 6.4992187 124 7.3007813 123.69961 7.8007812 123.09961 C 8.4007812 122.49961 8.6992188 121.8 8.6992188 121 C 8.6992188 120.2 8.4007812 119.40039 7.8007812 118.90039 C 7.2507813 118.35039 6.4742188 118.07422 5.6992188 118.07422 z"/></svg>