<svg fill="#ffffff" xmlns="http://www.w3.org/2000/svg" viewBox="0 0 32 32" width="64px" height="64px"><path d="M 4 4 L 4 10.666016 L 1 14.666016 L 1 15 C 1 16.645455 2.3545455 18 4 18 L 4 28 L 28 28 L 28 18 C 29.645455 18 31 16.645455 31 15 L 31 14.666016 L 28 10.666016 L 28 4 L 4 4 z M 6 6 L 26 6 L 26 10 L 6 10 L 6 6 z M 7 7 L 7 9 L 9 9 L 9 7 L 7 7 z M 10 7 L 10 9 L 12 9 L 12 7 L 10 7 z M 13 7 L 13 9 L 25 9 L 25 7 L 13 7 z M 5.5 12 L 26.5 12 L 28.910156 15.214844 C 28.801837 15.650276 28.470178 16 28 16 C 27.445455 16 27 15.554545 27 15 L 25 15 C 25 15.554545 24.554545 16 24 16 C 23.445455 16 23 15.554545 23 15 L 21 15 C 21 15.554545 20.554545 16 20 16 C 19.445455 16 19 15.554545 19 15 L 17 15 C 17 15.554545 16.554545 16 16 16 C 15.445455 16 15 15.554545 15 15 L 13 15 C 13 15.554545 12.554545 16 12 16 C 11.445455 16 11 15.554545 11 15 L 9 15 C 9 15.554545 8.5545455 16 8 16 C 7.4454545 16 7 15.554545 7 15 L 5 15 C 5 15.554545 4.5545455 16 4 16 C 3.5298224 16 3.1981633 15.650276 3.0898438 15.214844 L 5.5 12 z M 10 17.166016 C 10.535315 17.658317 11.222806 18 12 18 C 12.777194 18 13.464685 17.658317 14 17.166016 C 14.535315 17.658317 15.222806 18 16 18 C 16.777194 18 17.464685 17.658317 18 17.166016 C 18.535315 17.658317 19.222806 18 20 18 C 20.777194 18 21.464685 17.658317 22 17.166016 C 22.535315 17.658317 23.222806 18 24 18 C 24.763859 18 25.439459 17.668172 25.970703 17.189453 C 25.979872 17.197963 25.990727 17.204493 26 17.212891 L 26 26 L 6 26 L 6 17.212891 C 6.0092734 17.204493 6.020128 17.197963 6.0292969 17.189453 C 6.5605414 17.668172 7.2361416 18 8 18 C 8.7771938 18 9.4646848 17.658317 10 17.166016 z"/></svg>