<svg xmlns="http://www.w3.org/2000/svg" viewBox="0 0 128 128" width="64px" height="64px"><path fill="#fff" d="M78,124v-11c0-3.9,1.5-7.6,4.1-10.4L109,74.1c3.7-3.9,3.9-10,0.3-13.9c-4-4.3-10.7-4.2-14.6-0.1L81.2,74.4 c1.3-1.8,2.6-3.5,4-5.2l25.1-29c4-4.6,3.5-11.5-1.1-15.5c-4.6-4-11.5-3.5-15.5,1.1l-25.1,29c-0.6,0.7-1.2,1.4-1.8,2.2 c1.7-3.1,3.6-6.2,5.7-9.1L91,21.3c3.5-5,2.2-11.8-2.7-15.3c-5-3.5-11.8-2.2-15.3,2.7L54.4,35.3c-1,1.5-2,3-3,4.5l10.1-19.4 c2.8-5.4,1-12.2-4.3-15.1c-5.4-3-12.2-0.9-15,4.6L31.9,29.8c-5.8,11-9.9,22.9-12.3,35.1l-3,14.4c-2.3,11.1-3.1,22.5-2.3,33.8 L12,124v3h66V124z"/><path fill="#444b54" d="M78,127c-1.7,0-3-1.3-3-3v-11c0-4.7,1.8-9.1,5-12.5l27.1-28.7c2.6-2.8,2.5-7.2-0.3-9.9c-1.4-1.3-3.1-2-5-1.9 c-1.9,0.1-3.6,0.8-4.9,2.2L83.4,76.5c-1.1,1.1-2.9,1.3-4.1,0.3c-1.2-1-1.5-2.8-0.6-4c1.4-1.9,2.8-3.8,4.2-5.4l25.1-29 c2.9-3.3,2.5-8.4-0.8-11.3c-3.3-2.9-8.4-2.5-11.3,0.8l-25.1,29c-0.5,0.6-1,1.2-1.5,1.9l-0.2,0.2c-1,1.2-2.7,1.5-4,0.6 c-1.3-0.9-1.7-2.6-0.9-3.9c1.8-3.3,3.8-6.4,5.8-9.4l18.5-26.6c1.2-1.8,1.7-3.9,1.3-6c-0.4-2.1-1.5-3.9-3.3-5.2 c-1.8-1.2-3.9-1.7-6-1.3c-2.1,0.4-3.9,1.5-5.2,3.3L56.9,37.1C56,38.4,55,39.8,54,41.5c-0.9,1.4-2.6,1.8-4,1 c-1.4-0.8-1.9-2.6-1.2-4l10.3-19.8c1-1.9,1.2-4.1,0.5-6.1c-0.6-2-2-3.7-3.9-4.7c-1.9-1-4.1-1.2-6.1-0.5c-2,0.6-3.7,2-4.7,3.9 L34.5,31.2c-5.6,10.7-9.7,22.3-12,34.3c-0.3,1.6-1.9,2.7-3.5,2.4c-1.6-0.3-2.7-1.9-2.4-3.5c2.5-12.5,6.7-24.6,12.6-35.9L39.6,8.5 c1.7-3.3,4.6-5.8,8.2-6.9c3.6-1.1,7.4-0.8,10.7,0.9c3.3,1.7,5.8,4.6,6.9,8.2c0.3,0.9,0.5,1.8,0.6,2.8L70.5,7 c2.1-3.1,5.3-5.1,9-5.8c3.7-0.7,7.4,0.2,10.5,2.3c3.1,2.1,5.1,5.3,5.8,9c0.5,3,0.1,5.9-1.2,8.6c5.1-3.2,11.8-2.8,16.5,1.3 c5.8,5,6.5,13.9,1.5,19.7L102.4,54c3.2,0.1,6.2,1.3,8.6,3.5c5.2,4.9,5.4,13.2,0.5,18.4l-27.1,28.7c-2.1,2.3-3.3,5.2-3.3,8.3v11 C81,125.7,79.7,127,78,127z"/><path fill="#fff" d="M41.3,114l52.5,0c5.1,0,9.2-4.1,9.2-9.2l0-91.7c0-5.1-4.1-9.2-9.2-9.2L40.2,4C35.1,4,31,8.1,31,13.2l0.3,90.9 C31.3,109.5,35.8,114,41.3,114z"/><path fill="#71c2ff" d="M78.1,64.9c0-3.7-1.8-7.1-4.8-9.2L64,49.3c-1.3-1-2.1-2.5-2.1-4.2c0-2.8,2.3-5.1,5.1-5.1 c2.1,0,3.9,1.2,4.7,3.1c0.6,1.5,2.4,2.2,3.9,1.6c1.5-0.6,2.2-2.4,1.6-3.9c-1.3-3.2-4-5.5-7.2-6.4V34c0-1.7-1.3-3-3-3s-3,1.3-3,3 v0.4c-4.7,1.3-8.1,5.6-8.1,10.7c0,3.6,1.7,6.9,4.7,9l9.3,6.5c1.4,1,2.2,2.5,2.2,4.2c0,2.8-2.3,5.1-5.1,5.1c-0.8,0-1.5-0.2-2.2-0.5 c-1.1-0.5-2-1.4-2.5-2.6c-0.7-1.5-2.4-2.2-3.9-1.6c-1.5,0.7-2.2,2.4-1.6,3.9c1.1,2.5,3,4.4,5.4,5.6c0.6,0.3,1.2,0.5,1.8,0.6V76 c0,1.7,1.3,3,3,3s3-1.3,3-3v-0.4C74.7,74.3,78.1,70,78.1,64.9z"/><path fill="#444b54" d="M68 95A5 5 0 1 0 68 105A5 5 0 1 0 68 95Z"/><path fill="#444b54" d="M93.8,117H58.6c-1.7,0-3-1.3-3-3s1.3-3,3-3h35.2c3.4,0,6.2-2.8,6.2-6.2V13.2c0-3.4-2.8-6.2-6.2-6.2H40.2 C36.8,7,34,9.8,34,13.2v34.7c0,1.7-1.3,3-3,3s-3-1.3-3-3V13.2C28,6.5,33.5,1,40.2,1h53.7c6.7,0,12.2,5.5,12.2,12.2v91.7 C106,111.5,100.5,117,93.8,117z"/><path fill="#fff" d="M12.5,124C7,100.6,16.1,81,31.2,64.1l4.2-4.7c3.3-3.7,9-4.1,12.7-0.8s4.1,9,0.8,12.7L44.6,76 c-11.3,12.7-10.4,25-2.9,38"/><path fill="#444b54" d="M12.5,127c-1.4,0-2.6-0.9-2.9-2.3c-5-21.7,1.3-42.2,19.4-62.6l4.2-4.7c2.1-2.4,5.1-3.8,8.3-4 c3.2-0.2,6.3,0.9,8.7,3c2.4,2.1,3.8,5.1,4,8.3c0.2,3.2-0.9,6.3-3,8.7L46.9,78c-9.4,10.6-10.2,21.3-2.6,34.5 c0.8,1.4,0.3,3.3-1.1,4.1c-1.4,0.8-3.3,0.3-4.1-1.1c-9-15.6-8-28.8,3.3-41.5l4.2-4.7c1.1-1.2,1.6-2.7,1.5-4.3 c-0.1-1.6-0.8-3.1-2-4.1s-2.7-1.6-4.3-1.5c-1.6,0.1-3.1,0.8-4.1,2l-4.2,4.7c-16.7,18.8-22.6,37.6-18,57.2c0.4,1.6-0.6,3.2-2.2,3.6 C12.9,127,12.7,127,12.5,127z"/></svg>