<svg fill="#ffffff" xmlns="http://www.w3.org/2000/svg" viewBox="0 0 32 32" width="64px" height="64px"><path d="M 4 5 L 4 11 L 5 11 L 5 27 L 18.037109 27 L 17 32 L 22.300781 30.900391 L 31.099609 22.099609 C 31.699609 21.499609 32 20.75 32 20 C 32 19.25 31.699609 18.500391 31.099609 17.900391 C 30.499609 17.300391 29.75 17 29 17 C 28.289202 17 27.583111 17.279443 27 17.818359 L 27 11 L 28 11 L 28 5 L 4 5 z M 6 7 L 26 7 L 26 9 L 6 9 L 6 7 z M 7 11 L 25 11 L 25 19.800781 L 19.798828 25 L 7 25 L 7 11 z M 13 13 A 1.0001 1.0001 0 1 0 13 15 L 19 15 A 1.0001 1.0001 0 1 0 19 13 L 13 13 z M 29 19 C 29.25 19 29.499219 19.100781 29.699219 19.300781 C 30.099219 19.700781 30.099219 20.299219 29.699219 20.699219 L 21.300781 29.099609 L 19.599609 29.400391 L 19.900391 27.699219 L 28.300781 19.300781 C 28.500781 19.100781 28.75 19 29 19 z"/></svg>