<svg xmlns="http://www.w3.org/2000/svg" viewBox="0 0 48 48" width="96px" height="96px"><path fill="#4CAF50" d="M38,42H10c-2.2,0-4-1.8-4-4V10c0-2.2,1.8-4,4-4h28c2.2,0,4,1.8,4,4v28C42,40.2,40.2,42,38,42z"/><path fill="#FFF" d="M29.6,28c0,4-3.8,4.5-4.5,4.5v2.2h-1.8v-2.2c-0.6-0.1-4.8-0.5-4.8-5.3h3.3c0,0.5,0,2.8,2.5,2.8c2.1,0,2.1-1.7,2.1-1.9c0-3.6-7.2-2.1-7.2-7.7c0-3.4,3.1-4.5,4.5-4.5v-2.4h1.8v2.4c1.1,0.1,4.2,1,4.2,5.2h-3.3c0-0.9-0.2-2.7-2.1-2.7c-1.9,0-1.9,1.7-1.9,2C22.3,23.7,29.6,22.3,29.6,28z"/></svg>