<?xml version="1.0" encoding="utf-8"?>
<!-- Generator: Adobe Illustrator 16.0.0, SVG Export Plug-In . SVG Version: 6.00 Build 0)  -->
<!DOCTYPE svg PUBLIC "-//W3C//DTD SVG 1.1//EN" "http://www.w3.org/Graphics/SVG/1.1/DTD/svg11.dtd">
<svg version="1.1" id="Layer_1" xmlns="http://www.w3.org/2000/svg" xmlns:xlink="http://www.w3.org/1999/xlink" x="0px" y="0px"
	 width="100px" height="100px" viewBox="0 0 100 100" enable-background="new 0 0 100 100" xml:space="preserve">
<g>
	<path fill-rule="evenodd" clip-rule="evenodd" fill="#00ACD1" d="M96.342,32.479c-4.457-3.886-8.868-7.829-13.158-11.896
		c-3.569-3.379-7.12-6.647-12.362-7.048c-0.454-0.037-0.999-0.203-1.317-0.504c-2.837-2.671-5.759-3.476-9.89-2.633
		c-4.489,0.913-9.309,0.1-13.981,0.237c-4.824,0.142-9.857-1.935-14.342,2.135c-1.564,1.418-4.514,1.27-6.798,1.946
		c-0.979,0.288-2.044,0.659-2.783,1.316C15.363,21.668,9.034,27.329,2.849,33.14c-0.681,0.642-0.99,2.646-0.507,3.406
		c3.322,5.228,6.906,10.289,10.396,15.413c1.077,1.58,2.357,1.742,3.906,0.689c1.69-1.145,3.409-2.249,5.598-3.688v3.652
		c-0.001,11.161,0.043,22.323-0.043,33.485c-0.019,2.607,0.742,3.835,3.574,3.821c16.025-0.079,32.052-0.078,48.079-0.007
		c2.738,0.014,3.695-1.028,3.67-3.728c-0.094-11.162-0.043-22.323-0.049-33.485v-3.835c2.046,1.38,3.512,2.258,4.851,3.301
		c2.096,1.633,3.644,1.459,5.161-0.87c3.068-4.716,6.251-9.36,9.517-13.939C98.416,35.375,98.11,34.022,96.342,32.479z
		 M63.938,11.648c2.353,1.791,4.517,3.436,6.896,5.245c-4.039,5.704-7.918,11.185-11.724,16.562
		c-2.486-2.378-4.852-4.637-7.521-7.192C55.639,21.471,59.711,16.654,63.938,11.648z M60.026,12.898
		c-3.318,3.924-6.274,7.42-9.431,11.156c-3.181-3.752-6.139-7.243-9.456-11.156H60.026z M37.185,11.696
		c2.633,3.059,5.231,6.03,7.773,9.045c4.748,5.628,4.73,5.636-0.379,10.917c-0.646,0.667-1.223,1.401-2.064,2.37
		c-4.176-5.861-8.068-11.326-12.205-17.131C32.66,15.12,34.773,13.522,37.185,11.696z M84.878,51.188
		c-3.122-2.079-6.024-4.012-9.434-6.283v42.669H24.419V44.839c-3.441,2.281-6.323,4.189-9.56,6.334
		c-3.671-5.339-7.31-10.625-11.075-16.099c6.594-5.952,12.971-11.815,19.5-17.5c1.061-0.922,2.802-1.063,3.917-1.456
		c4.473,6.336,8.784,12.455,13.105,18.563c1.212,1.71,2.581,1.78,4.042,0.301c1.53-1.549,3.054-3.103,5.185-5.272
		c0.091,2.05,0.178,3.392,0.207,4.736c0.07,3.243,0.022,6.492,0.211,9.724c0.068,1.163,0.676,2.292,1.036,3.435
		c0.365-1.209,1.011-2.413,1.046-3.633c0.129-4.375,0.052-8.756,0.052-13.818c1.691,1.729,3.156,3.215,4.607,4.71
		c1.246,1.287,2.648,1.819,3.86,0.157c4.369-6.001,8.643-12.073,13.194-18.456c0.658,0.226,1.935,0.311,2.696,0.981
		c6.493,5.73,12.892,11.566,19.479,17.517C92.2,40.503,88.612,45.739,84.878,51.188z"/>
</g>
<polygon fill="#00ACD1" points="65.695,47.972 65.461,47.972 64.185,50.269 62.885,47.972 62.702,47.972 62.16,47.972 64.185,51.4 
	66.137,47.972 "/>
<polygon fill="#00ACD1" points="70.072,40.699 65.474,40.699 64.787,40.699 64.178,41.628 63.569,40.699 62.951,40.699 
	57.973,40.699 58.962,42.449 58.962,42.449 59.071,42.641 59.521,42.641 59.665,42.641 58.902,41.218 58.924,41.218 59.215,41.218 
	63.285,41.218 64.179,42.442 65.025,41.218 69.128,41.218 68.345,42.62 68.335,42.639 68.977,42.639 70.072,40.699 "/>
<g>
	<path fill="#00ACD1" d="M60.291,45.338l1.473-1.821H60.49l-1.057,1.388v-1.388h-1.088v3.554h1.088v-1.271l1.121,1.271h1.348
		L60.291,45.338z"/>
	<path fill="#00ACD1" d="M69.279,45.834c0.382-0.122,0.58-0.468,0.58-1.024c0-0.853-0.461-1.293-1.34-1.293H66.83v3.554h1.081
		v-1.073h0.331l0.574,1.073h1.174L69.279,45.834z M68.53,45.164h-0.619v-0.869H68.5c0,0,0.395-0.024,0.428,0.417
		C68.928,44.711,68.958,45.116,68.53,45.164z"/>
	<polygon fill="#00ACD1" points="65.305,43.518 64.178,45.233 63.096,43.518 62.2,43.518 62.2,47.071 63.192,47.071 63.192,45.036 
		64.168,46.495 65.168,45.036 65.168,47.021 65.168,47.071 66.18,47.071 66.18,43.518 	"/>
	<polygon fill="#00ACD1" points="63.39,43.105 64.176,44.353 64.993,43.105 	"/>
</g>
</svg>
