<?xml version="1.0" encoding="utf-8"?>
<!-- Generator: Adobe Illustrator 24.2.0, SVG Export Plug-In . SVG Version: 6.00 Build 0)  -->
<svg version="1.1" id="Layer_1" xmlns="http://www.w3.org/2000/svg" xmlns:xlink="http://www.w3.org/1999/xlink" x="0px" y="0px"
	 viewBox="0 0 165 110" style="enable-background:new 0 0 165 110;" xml:space="preserve">
<style type="text/css">
	.st0{opacity:0.5;}
	.st1{fill:#FFFFFF;}
</style>
<g class="st0">
	<path class="st1" d="M63.5,70.8c-0.2-0.4-0.4-0.7-0.6-1c-0.2-0.3-0.3-0.6-0.4-0.8c-0.1-0.2-0.2-0.5-0.3-0.6
		c-0.1-0.2-0.2-0.4-0.3-0.6c-0.1,0.2-0.2,0.4-0.3,0.6c-0.1,0.2-0.2,0.4-0.3,0.6c-0.1,0.2-0.3,0.5-0.4,0.8c-0.2,0.3-0.4,0.6-0.6,1
		l-1.6,2.9c-0.2,0.3-0.4,0.6-0.7,0.8c-0.3,0.2-0.6,0.3-1,0.3c-0.4,0-0.8-0.1-1.1-0.3c-0.3-0.2-0.6-0.6-0.7-1.1l-2.6-9h1.6
		c0.9,0,1.7,0.6,1.9,1.5l0.6,2.1c0.2,0.6,0.3,1.1,0.4,1.5s0.2,0.9,0.3,1.3c0.2-0.4,0.4-0.7,0.6-1.2c0.2-0.4,0.5-1,0.9-1.6l1.4-2.6
		c0.1-0.3,0.3-0.5,0.4-0.6c0.1-0.1,0.3-0.3,0.4-0.3c0.1-0.1,0.3-0.1,0.5-0.2c0.2,0,0.3,0,0.5,0c0.2,0,0.4,0,0.5,0
		c0.2,0,0.3,0.1,0.5,0.2c0.1,0.1,0.3,0.2,0.4,0.3c0.1,0.1,0.3,0.3,0.4,0.6l1.4,2.6c0.2,0.4,0.4,0.7,0.5,0.9c0.1,0.3,0.3,0.5,0.4,0.7
		c0.1,0.2,0.2,0.4,0.3,0.6c0.1,0.2,0.2,0.4,0.3,0.5c0.1-0.4,0.2-0.8,0.3-1.3c0.1-0.4,0.3-1,0.4-1.5l0.6-2.1c0.2-0.9,1-1.5,1.9-1.5
		h1.6l-2.6,9c-0.1,0.5-0.4,0.8-0.7,1.1c-0.3,0.2-0.7,0.3-1.1,0.3c-0.4,0-0.7-0.1-1-0.3c-0.3-0.2-0.5-0.5-0.7-0.8L63.5,70.8
		L63.5,70.8z M78.3,74.6h-1.2c-1.1,0-2-0.9-2-2v-8.2h1.2c1.1,0,2,0.9,2,2V74.6L78.3,74.6z M93.2,74.8c-0.2,0-0.4,0-0.6-0.1
		c-0.2-0.1-0.4-0.2-0.7-0.4l-6.2-5.6v4c0,1.1-0.9,2-2,2h-0.9v-8.5c0-0.3,0-0.6,0.1-0.9c0.1-0.2,0.2-0.4,0.4-0.6
		c0.2-0.2,0.3-0.3,0.5-0.3c0.2-0.1,0.4-0.1,0.6-0.1c0.2,0,0.4,0,0.6,0.1c0.2,0.1,0.4,0.2,0.7,0.4l6.2,5.6v-4c0-1.1,0.9-2,2-2h0.9
		v8.4c0,0.3,0,0.6-0.1,0.9c-0.1,0.2-0.2,0.4-0.4,0.6c-0.2,0.2-0.3,0.3-0.6,0.3C93.6,74.7,93.4,74.8,93.2,74.8L93.2,74.8z
		 M106.6,68.2h5.6v6.4h-7c-0.9,0-1.7-0.1-2.5-0.4c-0.8-0.3-1.4-0.6-1.9-1.1c-0.5-0.5-1-1-1.3-1.6c-0.3-0.6-0.5-1.3-0.5-2.1
		c0-0.7,0.2-1.4,0.5-2c0.3-0.6,0.7-1.1,1.3-1.6c0.5-0.4,1.2-0.8,1.9-1s1.6-0.4,2.5-0.4h7.3l-1.4,1.9c-0.4,0.5-0.9,0.8-1.6,0.8h-1.6
		h-2.7c-0.4,0-0.8,0.1-1.2,0.2c-0.4,0.1-0.7,0.3-1,0.5c-0.3,0.2-0.5,0.5-0.6,0.8c-0.2,0.3-0.2,0.6-0.2,1c0,0.4,0.1,0.7,0.2,1
		c0.1,0.3,0.4,0.6,0.6,0.8c0.3,0.2,0.6,0.4,1,0.5c0.4,0.1,0.8,0.2,1.2,0.2h3.9v-1.5h-5.3l1.3-1.6C105.5,68.5,106,68.2,106.6,68.2
		L106.6,68.2z"/>
	<path class="st1" d="M61.4,80.2l1.1-1.7h-0.6l-0.8,1.2l-0.8-1.2h-0.6l1.1,1.7v1.1h0.5V80.2z M67.2,80c0-0.2,0-0.4-0.1-0.6
		c-0.1-0.2-0.2-0.3-0.3-0.5c-0.1-0.1-0.3-0.2-0.5-0.3c-0.2-0.1-0.4-0.1-0.6-0.1c-0.2,0-0.4,0-0.6,0.1c-0.2,0.1-0.3,0.2-0.5,0.3
		c-0.1,0.1-0.2,0.3-0.3,0.5c-0.1,0.2-0.1,0.4-0.1,0.6c0,0.2,0,0.4,0.1,0.6c0.1,0.2,0.2,0.3,0.3,0.5c0.1,0.1,0.3,0.2,0.5,0.3
		c0.2,0.1,0.4,0.1,0.6,0.1c0.2,0,0.4,0,0.6-0.1c0.2-0.1,0.3-0.2,0.5-0.3c0.1-0.1,0.2-0.3,0.3-0.5C67.1,80.3,67.2,80.2,67.2,80z
		 M66.6,80c0,0.1,0,0.3-0.1,0.4c0,0.1-0.1,0.2-0.2,0.3c-0.1,0.1-0.2,0.2-0.3,0.2c-0.1,0.1-0.2,0.1-0.4,0.1c-0.1,0-0.3,0-0.4-0.1
		c-0.1-0.1-0.2-0.1-0.3-0.2c-0.1-0.1-0.1-0.2-0.2-0.3c0-0.1-0.1-0.2-0.1-0.4c0-0.1,0-0.3,0.1-0.4c0-0.1,0.1-0.2,0.2-0.3
		c0.1-0.1,0.2-0.2,0.3-0.2c0.1-0.1,0.2-0.1,0.4-0.1c0.1,0,0.3,0,0.4,0.1c0.1,0.1,0.2,0.1,0.3,0.2c0.1,0.1,0.1,0.2,0.2,0.3
		C66.6,79.7,66.6,79.8,66.6,80z M71.8,78.6h-0.5v1.6c0,0.3-0.1,0.4-0.2,0.6c-0.1,0.1-0.3,0.2-0.5,0.2c-0.2,0-0.4-0.1-0.5-0.2
		c-0.1-0.1-0.2-0.3-0.2-0.6v-1.6h-0.5v1.6c0,0.2,0,0.4,0.1,0.5c0.1,0.2,0.1,0.3,0.2,0.4c0.1,0.1,0.2,0.2,0.4,0.2
		c0.1,0.1,0.3,0.1,0.5,0.1c0.2,0,0.3,0,0.5-0.1c0.1-0.1,0.3-0.1,0.4-0.2c0.1-0.1,0.2-0.2,0.2-0.4c0.1-0.2,0.1-0.3,0.1-0.5L71.8,78.6
		L71.8,78.6z M76.5,81.3l-0.7-1c0.1,0,0.2-0.1,0.3-0.1c0.1,0,0.1-0.1,0.2-0.2c0.1-0.1,0.1-0.1,0.1-0.2c0-0.1,0-0.2,0-0.3
		c0-0.1,0-0.3-0.1-0.4c0-0.1-0.1-0.2-0.2-0.3c-0.1-0.1-0.2-0.1-0.3-0.2c-0.1,0-0.3-0.1-0.4-0.1h-1.2v2.8h0.5v-1h0.6l0.7,1H76.5
		L76.5,81.3z M75.9,79.5c0,0.1-0.1,0.3-0.2,0.3c-0.1,0.1-0.2,0.1-0.4,0.1h-0.7V79h0.7c0.2,0,0.3,0,0.4,0.1
		C75.8,79.2,75.9,79.3,75.9,79.5L75.9,79.5z M80.3,79.3c0-0.1,0-0.2,0.1-0.2c0.1-0.1,0.2-0.1,0.3-0.1c0.1,0,0.3,0,0.4,0.1
		c0.1,0,0.2,0.1,0.4,0.2l0.3-0.4c-0.1-0.1-0.3-0.2-0.5-0.3c-0.2-0.1-0.3-0.1-0.5-0.1c-0.1,0-0.3,0-0.4,0.1c-0.1,0-0.2,0.1-0.3,0.2
		c-0.1,0.1-0.1,0.2-0.2,0.3c0,0.1-0.1,0.2-0.1,0.3c0,0.1,0,0.2,0.1,0.3c0,0.1,0.1,0.2,0.2,0.2c0.1,0.1,0.2,0.1,0.3,0.2
		c0.1,0,0.2,0.1,0.4,0.1c0.1,0,0.2,0.1,0.3,0.1c0.1,0,0.1,0.1,0.2,0.1c0,0,0.1,0.1,0.1,0.1c0,0,0,0.1,0,0.1c0,0.1,0,0.2-0.1,0.3
		C81.1,80.9,81,81,80.9,81c-0.2,0-0.3,0-0.5-0.1c-0.1-0.1-0.3-0.2-0.4-0.3l-0.3,0.3c0.2,0.2,0.3,0.3,0.5,0.3
		c0.2,0.1,0.4,0.1,0.6,0.1c0.1,0,0.3,0,0.4-0.1c0.1,0,0.2-0.1,0.3-0.2c0.1-0.1,0.2-0.2,0.2-0.3c0-0.1,0.1-0.2,0.1-0.4
		c0-0.1,0-0.2-0.1-0.3c0-0.1-0.1-0.2-0.2-0.2c-0.1-0.1-0.2-0.1-0.3-0.2c-0.1,0-0.2-0.1-0.4-0.1c-0.1,0-0.2-0.1-0.3-0.1
		c-0.1,0-0.2-0.1-0.2-0.1c0,0-0.1-0.1-0.1-0.1C80.3,79.4,80.3,79.4,80.3,79.3L80.3,79.3z M84.1,81.3h1.9v-0.4h-1.5v-2.3h-0.5
		L84.1,81.3L84.1,81.3z M90.9,80c0-0.2,0-0.4-0.1-0.6c-0.1-0.2-0.2-0.3-0.3-0.5c-0.1-0.1-0.3-0.2-0.5-0.3c-0.2-0.1-0.4-0.1-0.6-0.1
		c-0.2,0-0.4,0-0.6,0.1c-0.2,0.1-0.3,0.2-0.5,0.3c-0.1,0.1-0.2,0.3-0.3,0.5C88,79.6,88,79.8,88,80c0,0.2,0,0.4,0.1,0.6
		c0.1,0.2,0.2,0.3,0.3,0.5c0.1,0.1,0.3,0.2,0.5,0.3c0.2,0.1,0.4,0.1,0.6,0.1c0.2,0,0.4,0,0.6-0.1c0.2-0.1,0.3-0.2,0.5-0.3
		c0.1-0.1,0.2-0.3,0.3-0.5C90.8,80.3,90.9,80.2,90.9,80z M90.4,80c0,0.1,0,0.3-0.1,0.4c0,0.1-0.1,0.2-0.2,0.3
		c-0.1,0.1-0.2,0.2-0.3,0.2c-0.1,0.1-0.2,0.1-0.4,0.1c-0.1,0-0.3,0-0.4-0.1c-0.1-0.1-0.2-0.1-0.3-0.2c-0.1-0.1-0.1-0.2-0.2-0.3
		c0-0.1-0.1-0.2-0.1-0.4c0-0.1,0-0.3,0.1-0.4c0-0.1,0.1-0.2,0.2-0.3c0.1-0.1,0.2-0.2,0.3-0.2c0.1-0.1,0.2-0.1,0.4-0.1
		c0.1,0,0.3,0,0.4,0.1c0.1,0.1,0.2,0.1,0.3,0.2c0.1,0.1,0.1,0.2,0.2,0.3C90.3,79.7,90.4,79.8,90.4,80L90.4,80z M95.6,81v-1.2h-1.2
		v0.4h0.7v0.5c-0.1,0.1-0.2,0.1-0.3,0.2c-0.1,0-0.2,0.1-0.4,0.1c-0.1,0-0.3,0-0.4-0.1c-0.1-0.1-0.2-0.1-0.3-0.2
		c-0.1-0.1-0.1-0.2-0.2-0.3c0-0.1-0.1-0.3-0.1-0.4c0-0.1,0-0.3,0.1-0.4c0-0.1,0.1-0.2,0.2-0.3c0.1-0.1,0.2-0.2,0.3-0.2
		c0.1-0.1,0.2-0.1,0.4-0.1c0.1,0,0.2,0,0.2,0c0.1,0,0.1,0,0.2,0.1c0.1,0,0.1,0.1,0.2,0.1c0.1,0,0.1,0.1,0.2,0.1l0.3-0.4
		c-0.1-0.1-0.1-0.1-0.2-0.2c-0.1,0-0.2-0.1-0.2-0.1c-0.1,0-0.2-0.1-0.3-0.1c-0.1,0-0.2,0-0.3,0c-0.2,0-0.4,0-0.6,0.1
		c-0.2,0.1-0.3,0.2-0.5,0.3c-0.1,0.1-0.2,0.3-0.3,0.5C93.1,79.6,93,79.8,93,80c0,0.2,0,0.4,0.1,0.6c0.1,0.2,0.2,0.3,0.3,0.5
		c0.1,0.1,0.3,0.2,0.5,0.3c0.2,0.1,0.4,0.1,0.6,0.1c0.1,0,0.2,0,0.3,0c0.1,0,0.2-0.1,0.3-0.1c0.1,0,0.2-0.1,0.3-0.1
		C95.5,81.1,95.6,81,95.6,81L95.6,81z M99.4,78.6h-0.5l-1.2,2.8h0.5l0.3-0.7h1.3l0.3,0.7h0.5L99.4,78.6z M99.6,80.2h-1l0.5-1.1
		L99.6,80.2L99.6,80.2z M104.7,80.5l-1.5-1.9h-0.5v2.8h0.5v-2l1.5,2h0.4v-2.8h-0.5L104.7,80.5L104.7,80.5z"/>
	<path class="st1" d="M58.2,36.3h16.6c0.5,0,0.9,0,1.3,0c-0.6,1.4-1,2.8-1.1,4.4H62.6C60.2,40.7,58.2,38.7,58.2,36.3L58.2,36.3
		L58.2,36.3z"/>
	<path class="st1" d="M63.4,43.7h7h4.4h0.1c0.2,1.5,0.6,3,1.2,4.4c-0.4,0-0.8,0-1.2,0h-4.4h-2.7C65.4,48.1,63.4,46.1,63.4,43.7
		L63.4,43.7L63.4,43.7z"/>
	<path class="st1" d="M76.1,51.3c4.8-0.3,8.7-4.3,8.7-9.2c0-1.9-0.6-3.6-1.5-5.1c0.9-1.1,2.2-2,3.6-2.6c1.5,2.2,2.4,4.8,2.4,7.6l0,0
		c0,7.5-6.1,13.6-13.6,13.6h-0.1v0h-1.7c-2.4,0-4.4-2-4.4-4.4v0H76.1L76.1,51.3z M77.9,33.3c-0.8-0.2-1.5-0.3-2.4-0.3
		c-8.6,0-9.6,0-18.3,0c-2.3,0-4.3-1.9-4.4-4.2l0,0v-0.2v0c9,0,10.4,0,19.5,0h1.1h1h0.3h0.8c2.1,0,4.1,0.5,5.9,1.4
		C80.1,30.9,78.9,32,77.9,33.3L77.9,33.3z"/>
	<path class="st1" d="M106.8,36.3H90.9c-0.8,0-1.4,0-2,0c0.6,1.4,1,2.9,1.2,4.4h12.3C104.8,40.7,106.8,38.8,106.8,36.3L106.8,36.3z"
		/>
	<path class="st1" d="M101.6,43.7h-7h-4.4h-0.1c-0.2,1.5-0.6,3-1.2,4.4c0.4,0,0.8,0,1.2,0h4.4h2.7C99.6,48.1,101.6,46.1,101.6,43.7
		L101.6,43.7L101.6,43.7z"/>
	<path class="st1" d="M89,51.3c-0.6,0-1.2-0.1-1.8-0.3c-1,1.3-2.2,2.4-3.6,3.3c1.8,0.9,3.8,1.4,5.9,1.4h0.1v0h1.7
		c2.4,0,4.4-2,4.4-4.4v0H89L89,51.3z M81.8,47.2c-1-1.5-1.5-3.2-1.5-5.1c0-5,4.1-9.2,9.2-9.2c8.6,0,9.6,0,18.3,0
		c2.3,0,4.3-1.9,4.4-4.2l0,0v-0.2v0c-9,0-10.4,0-19.5,0h-1.1h-1h-0.3h-0.8c-7.5,0-13.6,6.1-13.6,13.6l0,0c0,2.8,0.9,5.5,2.4,7.6
		C79.7,49.3,80.9,48.4,81.8,47.2L81.8,47.2z"/>
</g>
</svg>
